<svg width="780" height="176" viewBox="0 0 780 176" fill="none" xmlns="http://www.w3.org/2000/svg">
<g clip-path="url(#clip0_45_84)">
<path d="M778.235 5.72976C775.5 1.19851 770.578 0.885986 768.391 0.729736H453.469C444.563 0.729736 437.375 3.46415 431.985 8.77665C428.156 12.6048 425.578 17.5266 424.172 23.5422C424.094 23.7766 423.703 24.9485 421.047 24.9485H358.781C356.125 24.9485 355.734 23.6985 355.656 23.5422C354.328 17.5266 351.672 12.6048 347.844 8.77665C342.531 3.46415 335.266 0.729736 326.438 0.729736H11.5939C9.56262 0.807861 4.56262 1.12038 1.82824 5.72976C0.500117 7.91726 -0.437385 11.6672 2.37511 16.9016L8.15636 26.511C10.5001 30.3391 13.2345 31.7454 18.8595 32.136C18.9376 32.136 21.5939 32.3704 23.3907 35.5735L29.2501 45.886C30.5001 48.2298 33.3907 53.7766 43.3907 55.1829C43.547 55.1829 46.4376 55.4954 48.0782 58.5422L55.3439 71.2766C57.4532 75.3391 60.422 76.9016 65.8126 78.5423L197.531 117.214C201.984 118.542 203.86 123.62 203.86 123.62C206.985 131.745 211.047 138.464 231.672 144.636L339.406 174.011C340.735 174.48 353.078 178.23 362.375 169.245L387.688 145.105C387.688 145.105 388.703 144.089 390.109 144.089C391.516 144.089 392.609 145.183 392.609 145.183C392.688 145.261 417.844 169.245 417.844 169.245C427.141 178.23 439.484 174.48 440.891 174.011C440.813 174.011 548.547 144.636 548.625 144.636C569.172 138.464 573.391 131.589 576.359 123.62C576.516 123.308 578.234 118.542 582.688 117.214C582.688 117.214 602.609 111.355 714.406 78.5423C719.797 76.9016 722.766 75.3391 724.875 71.2766L732.063 58.6204C733.703 55.4954 736.516 55.1829 736.672 55.1048C746.75 53.7766 749.641 48.2297 750.891 45.8079L756.75 35.4954C758.547 32.2922 761.203 32.0579 761.36 32.0579C766.985 31.6673 769.719 30.261 772.063 26.4329L777.844 16.8235C779.094 14.5579 779.641 12.4485 779.641 10.4173C779.484 8.77663 779.094 7.13601 778.235 5.72976ZM429.953 24.8704C431.047 20.0266 433.156 16.0422 436.203 12.9954C440.422 8.77662 446.203 6.66726 453.469 6.66726H598.156C593.156 10.4173 590.578 15.1048 590.422 15.4173C588.703 18.5423 586.672 22.2141 584.172 26.3548H429.406C429.719 25.7298 429.953 24.8704 429.953 24.8704ZM234.016 74.7141L233.938 74.636V30.886H545.969V74.7141H234.016ZM229.406 36.8235L203.781 38.5423C201.984 35.886 200.266 33.3079 198.703 30.886H229.406V36.8235ZM229.406 41.5891V47.8391L212.297 50.1047C210.422 47.6829 208.703 45.3391 206.985 43.0735L229.406 41.5891ZM229.406 52.3704V59.5579L221.438 61.1985C219.406 58.8548 217.453 56.511 215.578 54.2454L229.406 52.3704ZM229.406 64.2454V69.9485C227.844 68.3079 226.36 66.7454 224.953 65.1048C226.75 64.7923 228.235 64.4798 229.406 64.2454ZM287.063 79.2454H315.266L275.891 107.449C269.094 103.308 262.375 98.7766 255.969 93.8547C270.735 86.9016 284.406 80.4954 287.063 79.2454ZM251.906 90.6516C251.516 90.3391 242.531 82.8391 238.781 79.2454H276.281L251.906 90.6516ZM323.078 79.2454H338.235L299.406 119.714C292.844 116.824 286.438 113.542 280.188 109.949C298.781 96.6673 318.234 82.761 323.078 79.2454ZM344.563 79.2454H357.453L327.531 129.87C319.484 127.605 311.594 124.87 303.938 121.667C320.188 104.636 339.797 84.1672 344.563 79.2454ZM362.688 79.2454H373.547L357.766 136.12C349.016 134.949 340.422 133.308 332.063 131.12C343.547 111.745 358.859 85.8079 362.688 79.2454ZM417.297 79.2454L447.922 131.042C439.563 133.23 430.969 134.87 422.219 136.042L406.438 79.2454H417.297ZM422.61 79.2454H435.5L476.125 121.667C468.469 124.87 460.578 127.605 452.453 129.87L422.61 79.2454ZM441.75 79.2454H456.906L499.797 109.949C493.547 113.542 487.141 116.824 480.578 119.714C466.438 105.027 449.406 87.2141 441.75 79.2454ZM464.719 79.2454H492.922L524.016 93.7766C517.531 98.7766 510.891 103.308 504.094 107.37C489.094 96.6672 473.234 85.3391 464.719 79.2454ZM503.703 79.2454H541.203C537.375 83.0735 528.313 90.4173 528.078 90.6516C518.938 86.4329 510.031 82.2141 503.703 79.2454ZM550.578 64.2454L555.109 65.1829C553.625 66.8235 552.141 68.386 550.578 70.0266V64.2454ZM550.578 59.636V52.4485L564.484 54.3235C562.609 56.6673 560.656 58.9329 558.625 61.2766C555.031 60.4954 552.219 59.9485 550.578 59.636ZM550.578 47.8391V41.5891L573 43.0735C571.36 45.3391 569.563 47.761 567.688 50.1047L550.578 47.8391ZM550.578 36.8235V30.8079H581.36C579.797 33.2297 578.078 35.8079 576.281 38.4641L550.578 36.8235ZM326.516 6.66726C333.781 6.66726 339.641 8.77662 343.781 12.9954C346.828 16.0422 348.938 20.0266 350.031 24.8704C350.031 24.8704 350.266 25.7297 350.5 26.2766H195.813C193.469 22.3704 189.563 15.3391 189.563 15.3391C189.406 15.0266 186.75 10.3391 181.828 6.58911H326.516V6.66726ZM19.2501 26.2766C15.2657 25.9641 14.4064 25.4954 13.1564 23.4641C13.1564 23.4641 7.92198 14.7923 7.53136 14.0891C6.67198 12.4485 6.35949 11.2766 6.43761 10.4954C6.51574 8.38599 8.00011 6.74539 11.8282 6.66726H168.781C179.406 6.66726 185.656 17.6048 185.656 17.6048C187.063 20.1829 188.703 23.1516 190.578 26.3548H19.2501V26.2766ZM40.5001 48.5422C36.5157 47.136 35.1876 44.7923 34.4064 43.2298C31.9845 39.0891 28.7814 32.8391 27.1407 30.886H193.313C194.875 33.4641 196.672 36.1204 198.547 38.9329L52.7657 48.6204C50.5001 48.8548 43.8595 49.4016 40.5001 48.5422ZM67.4532 69.5579C62.1407 70.261 60.5001 68.5422 60.1876 68.0735L53.2345 55.8079C52.7657 54.8704 52.2189 54.1672 51.5939 53.4641C52.5314 53.386 201.672 43.4641 201.672 43.4641C203.391 45.886 205.188 48.3079 207.063 50.886L67.4532 69.5579ZM101.281 82.9954C86.8282 78.6985 75.0314 75.261 70.0314 73.7766L210.344 54.9485C212.297 57.3704 214.25 59.7923 216.36 62.2923L120.422 81.9797C116.75 82.761 106.594 84.3235 101.281 82.9954ZM148.859 96.9016C138.156 93.7766 126.828 90.4173 116.203 87.2923C119.016 86.9016 121.047 86.511 121.281 86.4329C121.281 86.4329 190.813 72.136 219.797 66.1985C222.609 69.4016 225.656 72.6047 228.86 75.886L164.563 95.7298C164.328 95.8079 155.578 98.6985 148.859 96.9016ZM199.016 111.667C197.609 111.277 182.375 106.824 162.688 100.964C164.563 100.495 165.813 100.105 165.969 100.105C165.891 100.105 219.953 83.4641 232.531 79.5579C237.141 84.011 242.063 88.4641 247.375 92.8391L212.609 109.089C210.266 110.261 203.547 112.917 199.016 111.667ZM226.828 136.902C213.234 131.745 211.203 126.667 209.25 121.667C209.094 121.199 208.078 118.62 205.891 116.042C210.5 115.183 214.328 113.23 214.563 113.152C214.563 113.152 232.922 104.558 251.281 95.9641C257.922 101.199 264.797 105.964 271.828 110.339L239.328 133.62C239.25 133.699 232.531 138.699 226.828 136.902ZM265.891 147.995L237.063 140.105C239.953 138.855 241.906 137.37 242.063 137.292C242.063 137.292 258.156 125.808 276.125 112.917C282.61 116.745 289.25 120.183 296.047 123.23L277.141 142.917C275.5 144.714 270.188 149.011 265.891 147.995ZM305.813 158.855L274.797 150.417C278 148.62 280.266 146.277 280.422 146.12C280.422 146.12 289.25 136.902 300.5 125.183C308.469 128.62 316.672 131.511 325.11 133.933L314.875 151.277C313.625 153.542 309.406 159.48 305.813 158.855ZM351.359 159.48C351.359 159.558 350.11 165.105 346.203 167.449C344.485 168.542 342.375 168.777 340.031 168.23L312.922 160.808C316.203 158.152 318.469 154.245 318.86 153.542C318.86 153.542 323.469 145.808 329.719 135.183C338.469 137.527 347.453 139.323 356.594 140.573L351.359 159.48ZM358.234 165.105C356.125 167.136 353.859 168.23 351.594 168.855C354.563 165.495 355.656 161.199 355.813 160.574L361.203 141.277C367.922 142.058 374.797 142.605 381.75 142.839C376.125 147.995 358.234 165.105 358.234 165.105ZM362.375 136.667L378.313 79.2454H387.688V138.23C379.094 138.152 370.656 137.683 362.375 136.667ZM392.297 138.23V79.2454H401.75L417.688 136.667C409.328 137.683 400.891 138.152 392.297 138.23ZM417.844 161.355C417.844 161.355 403.234 147.448 398.313 142.683C405.266 142.448 412.141 141.902 418.86 141.12L424.25 160.495C424.406 161.198 425.5 165.417 428.469 168.777C424.328 167.605 423.078 166.433 417.844 161.355ZM440.031 168.23C437.609 168.777 435.578 168.542 433.781 167.449C430.031 165.183 428.781 159.87 428.703 159.558L423.469 140.652C432.609 139.402 441.594 137.605 450.344 135.261L461.203 153.699C461.594 154.402 463.781 158.23 467.063 160.886L440.031 168.23ZM474.172 158.855C470.578 159.402 466.36 153.542 465.188 151.355L454.875 133.933C463.313 131.511 471.516 128.62 479.484 125.183L499.563 146.12C499.719 146.277 501.985 148.62 505.188 150.417L474.172 158.855ZM519.25 146.589L514.094 147.995C509.797 149.011 504.485 144.714 502.844 142.995C502.844 142.995 494.563 134.402 483.938 123.308C490.735 120.261 497.375 116.745 503.86 112.995L538 137.37C538.156 137.449 540.11 138.933 542.922 140.183C535.344 142.214 519.25 146.589 519.25 146.589ZM570.734 121.667C568.781 126.667 566.75 131.745 553.078 136.902C547.453 138.62 540.734 133.62 540.656 133.62C540.656 133.62 525.422 122.683 508.078 110.339C515.109 105.964 521.985 101.198 528.625 96.0422L565.422 113.23C565.656 113.308 569.406 115.261 574.016 116.12C571.906 118.62 570.891 121.199 570.734 121.667ZM581.047 111.667C576.516 112.917 569.797 110.261 567.531 109.167C567.531 109.167 550.344 101.12 532.688 92.8391C538 88.5423 542.922 84.0891 547.531 79.5579L614.172 100.105C614.328 100.183 615.5 100.574 617.375 100.964L581.047 111.667ZM631.203 96.9016C624.484 98.6985 615.656 95.8079 615.578 95.7298H615.5L551.281 75.886C554.485 72.6829 557.453 69.4016 560.344 66.1985L658.781 86.4329C659.016 86.511 661.047 86.9016 663.859 87.2923L631.203 96.9016ZM678.781 82.9954C673.547 84.4016 663.234 82.8391 659.641 82.0579C659.641 82.0579 593.938 68.5423 563.703 62.3704C565.813 59.8704 567.844 57.4485 569.719 55.0266L709.953 73.8548L678.781 82.9954ZM726.828 55.886C726.828 55.8079 721.125 65.9641 719.875 68.0735C719.563 68.4641 717.922 70.261 712.61 69.5579L573 50.8079C574.875 48.3079 576.75 45.8079 578.391 43.386L726.75 53.2297C726.984 53.2297 727.609 53.3079 728.469 53.386C727.844 54.0891 727.297 54.9485 726.828 55.886ZM751.594 32.6829L745.656 43.1516C744.797 44.7141 743.547 47.136 739.563 48.4641C736.203 49.3235 729.563 48.7766 727.297 48.4641L581.594 38.7766C583.469 35.9641 585.266 33.3079 586.828 30.7298H753C752.375 31.4329 751.985 32.0579 751.594 32.6829ZM772.531 14.0891C772.453 14.2454 766.906 23.4641 766.906 23.4641C765.813 25.1829 765.188 25.9641 760.813 26.2766H589.484C591.438 23.0735 593.078 20.1047 594.406 17.5266C594.484 17.4485 600.5 6.58911 611.281 6.58911H768.234C769.875 6.66724 771.985 6.8235 773.156 8.6985C773.313 8.93287 773.625 9.47976 773.625 10.4173C773.625 11.2766 773.391 12.4485 772.531 14.0891Z" fill="white"/>
<path d="M253.234 37.9954L239.953 67.6829H243.703V67.3704C244.797 63.7766 246.125 60.3391 247.453 56.9797C247.453 56.9797 247.688 56.5891 247.766 56.4329H258.156C259.563 59.636 260.969 63.0735 262.453 67.3704V67.6829H267.375L254.641 37.9954H253.234ZM279.25 37.9954C273.391 37.9954 269.719 41.0422 269.719 46.0422C269.719 51.1985 273.547 52.761 276.906 54.0891C279.953 55.261 283 56.3547 283 59.8704C283 63.1516 280.344 65.9641 277.219 65.9641C274.406 65.9641 272.453 64.636 270.578 61.6672H269.719L268.859 65.7297H269.172C270.734 67.4485 274.172 68.3079 276.125 68.3079C282.375 68.3079 286.828 64.2454 286.828 58.4641C286.828 53.6985 283.156 52.0579 279.641 50.6516C276.516 49.4016 273.547 48.386 273.547 44.8704C273.547 42.2141 275.813 40.261 278.703 40.261C281.047 40.261 282.766 41.511 283.625 43.6985H284.484L285.656 39.9485C283.859 38.4641 281.125 37.9954 279.25 37.9954ZM325.422 37.9954C316.125 37.9954 309.563 44.011 309.563 52.9954C309.563 62.0579 316.047 68.3079 325.422 68.3079C335.188 68.3079 341.594 61.8235 341.594 52.4485C341.594 42.2922 333.469 37.9954 325.422 37.9954ZM436.75 37.9954L423.469 67.6829H426.906V67.3704C428 63.6985 429.563 60.3391 430.969 56.9797C430.969 56.9797 431.203 56.5891 431.281 56.4329H441.359C442.766 59.636 444.25 63.2298 445.656 67.3704L445.969 67.6829H450.891L437.922 37.9954H436.75ZM288.469 38.5422V41.4329H288.781C291.281 41.1204 293.781 41.1204 297.688 41.1204V67.6829H301.75V41.1204C304.719 41.1204 307.766 41.1204 310.422 41.4329H310.734V38.5422H310.422H288.469ZM346.203 38.5422V67.6829H349.094V45.1829C349.25 45.3391 367.297 65.1047 367.297 65.1047L369.641 67.6829H371.047V38.5422H370.734H368.156C368.156 38.5422 368.156 59.7141 368.156 60.1829C368 60.0266 348.234 38.5422 348.234 38.5422H346.203ZM391.75 38.5422V38.8548C391.359 43.1516 388.781 60.6516 387.688 67.4485V67.761H391.125V67.4485C391.125 63.3079 391.828 57.2141 392.531 50.7297C392.531 50.7297 393 47.8391 393.078 46.6673C393.547 47.6048 399.094 57.9172 401.125 62.2141L403.469 67.136H404.328C406.75 61.511 410.266 55.1048 415.031 46.6673C415.656 51.6673 416.594 61.6672 417.063 67.4485V67.761H421.672V67.4485C420.656 60.3391 419.484 51.1204 418.234 38.8548V38.5422H417.922H416.75L409.797 51.2766C409.797 51.2766 405.266 59.4798 404.875 60.1829C400.5 52.9173 396.672 45.1829 393.313 38.5422H393H391.75ZM453.547 38.5422V67.6829H457.609C457.609 67.6829 457.609 54.011 457.609 53.5423H458.781C458.938 53.6985 462.219 57.6048 462.219 57.6048L467.141 63.9329L469.719 67.6829H470.031H475.188C475.188 67.6829 464.172 53.8547 463.625 53.2297C468.938 52.136 472.297 49.2454 472.297 45.1829C472.297 40.7297 468.938 38.5422 462.453 38.5422H453.547ZM474.563 38.5422V41.4329H474.875C477.375 41.1204 479.875 41.1204 483.781 41.1204V67.6829H487.844C487.844 67.6829 487.844 41.6672 487.844 41.1204C490.813 41.1204 493.859 41.1204 496.516 41.4329H496.828V38.5422H496.516H474.563ZM500.266 38.5422V67.6829H504.328V38.5422H500.266ZM510.344 38.5422V67.6829H513.234V45.1829C513.391 45.3391 531.438 65.1047 531.438 65.1047L533.781 67.6829H535.188V38.5422H532.297V60.1829C532.141 60.0266 512.375 38.5422 512.375 38.5422H510.344ZM325.656 39.7141C329.016 39.7141 332.375 41.2766 334.328 43.7766C336.516 46.511 336.906 49.2454 336.906 52.6829C336.906 52.9172 336.906 53.0735 336.906 53.2297C336.906 56.0422 335.813 60.261 333.156 63.0735C331.125 65.261 328.469 66.2766 325.344 66.2766C318.547 66.2766 314.094 61.2766 314.094 53.5423C314.172 45.0266 318.547 39.7141 325.656 39.7141ZM457.531 40.5735C459.25 40.4954 462.141 40.3391 463.625 40.5735C466.516 41.0422 467.922 42.6048 467.922 45.4954C467.922 48.4641 465.969 50.5735 462.766 51.2766C460.969 51.6672 458.625 51.5891 457.609 51.5891V40.5735H457.531ZM253 44.3235C253.391 45.261 257.063 53.4641 257.297 54.1672H248.938C249.25 53.4641 252.531 45.3391 253 44.3235ZM436.516 44.3235C436.906 45.261 440.266 53.4641 440.578 54.1672H432.219C432.453 53.4641 436.047 45.3391 436.516 44.3235Z" fill="white"/>
</g>
<defs>
<clipPath id="clip0_45_84">
<rect width="780" height="176" fill="white"/>
</clipPath>
</defs>
</svg>
