<svg width="1686" height="2280" viewBox="0 0 1686 2280" fill="none" xmlns="http://www.w3.org/2000/svg">
<g clip-path="url(#clip0_45_59)">
<path fill-rule="evenodd" clip-rule="evenodd" d="M1685.67 148.915V193.337L842.974 44.6775L0.341309 193.337V148.915L842.974 0.294922L1685.67 148.915Z" fill="#33A457"/>
<path fill-rule="evenodd" clip-rule="evenodd" d="M1685.67 236.773L842.974 89.0859L0.341309 236.773L0.354296 386.625L7.65627 382.488C10.6263 380.828 309.631 215.048 844.595 215.048C1379.6 215.048 1675.11 380.867 1678.11 382.514L1685.33 386.664L1685.67 236.773Z" fill="#CC2131"/>
<path fill-rule="evenodd" clip-rule="evenodd" d="M844.608 244.01C1327.71 244.01 1610.59 379.959 1656.44 403.797V835.198C1656.44 1070.39 1601.04 1304.69 1491.86 1531.71C1252.88 2027.57 893.284 2222.28 842.987 2247.68C792.651 2222.28 432.779 2027.57 193.863 1531.71C84.6836 1304.69 29.3027 1070.39 29.3027 835.198V403.849C75.5659 380.037 361.419 244.01 844.608 244.01Z" fill="#FFF22D"/>
<path fill-rule="evenodd" clip-rule="evenodd" d="M7.66916 382.475L0.367188 386.612V835.198C0.367188 1074.8 56.6949 1313.35 167.794 1544.2C428.603 2085.69 832.948 2275.11 836.995 2276.97L842.987 2279.71L848.966 2276.97C853.051 2275.11 1257.06 2085.64 1517.86 1544.2C1629.01 1313.35 1685.35 1074.8 1685.35 835.198V386.651L1678.12 382.501C1675.14 380.854 1379.61 215.035 844.608 215.035C309.644 215.035 10.6392 380.815 7.66916 382.475ZM844.608 244.01C1327.71 244.01 1610.59 379.959 1656.44 403.797V835.198C1656.44 1070.39 1601.04 1304.69 1491.86 1531.71C1252.88 2027.57 893.284 2222.28 842.987 2247.68C792.651 2222.28 432.779 2027.57 193.863 1531.71C84.6836 1304.69 29.3027 1070.39 29.3027 835.198V403.849C75.5659 380.037 361.42 244.01 844.608 244.01Z" fill="black"/>
<path fill-rule="evenodd" clip-rule="evenodd" d="M971.141 1829.64C985.175 1839.34 974.993 1856.19 964.604 1858.82C953.788 1861.77 944.54 1849.76 939.301 1862.92C936.356 1869.99 944.346 1923.54 999.13 1923.54C1050.27 1923.54 1074.67 1857.89 1079.48 1848.01C1084.32 1838.15 1087.43 1825.57 1082.59 1825.57C1060.15 1825.57 1053.62 1838.89 1053.62 1838.89C1053.62 1838.89 1051.92 1826.07 1063.07 1816.4C1072.27 1808.5 1084.33 1810.42 1088.69 1810.42C1097.83 1810.42 1096.39 1803.61 1101.92 1790.14C1114.51 1758.42 1123.17 1757 1131.36 1742.54C1138.14 1730.76 1125.33 1726.14 1100.05 1723.77C1074.69 1721.36 1061.11 1722.38 1049.79 1724.03C1038.44 1725.65 1027.14 1730.25 1020.1 1747.61C1016.33 1757.01 1023.24 1766.27 1036.52 1763.87C1049.79 1761.39 1062.57 1751.36 1062.57 1751.36C1062.57 1751.36 1056.59 1775.12 1036.78 1780.03C1018.42 1784.55 996.731 1773.47 999.649 1754.88C1003.45 1730.77 1020.12 1713.11 1050.52 1707.15C1080.97 1701.02 1111.32 1705.72 1138.39 1712.37C1165.36 1719.18 1185.22 1715.05 1210.3 1713.59C1264.39 1710.7 1297.9 1697.93 1297.9 1697.93C1297.9 1697.93 1273.53 1717.71 1239.75 1726.86C1205.96 1736.08 1175.83 1732.25 1166.08 1736.08C1158.2 1739.45 1147.08 1755.08 1137.91 1772.94C1129.48 1789.36 1120.5 1808.28 1124.38 1808.28C1155.79 1809.47 1167.3 1802.6 1167.3 1802.6C1167.3 1802.6 1161.08 1816.15 1146.12 1822.56C1135.73 1826.76 1118.1 1826.76 1118.1 1826.76C1118.1 1826.76 1110.18 1846.83 1101.25 1864.93C1092.27 1883.02 1077.55 1911.29 1051.05 1925.27C1024.45 1939.22 973.58 1956.63 941.544 1910.55C907.654 1862.21 938.587 1807.22 971.141 1829.64ZM577.833 1835.94C584.085 1851.95 570.804 1860.29 563.087 1860.29C555.344 1860.29 545.707 1854.54 543.697 1864.22C541.855 1873.82 564.254 1923.32 616.366 1923.32C668.505 1923.32 692.667 1893.15 688.997 1866.13C684.912 1835.96 636.988 1823.97 598.792 1803.88C580.103 1794.08 537.86 1787.52 537.86 1747.97C537.86 1663.54 666.352 1717.47 666.352 1717.47C666.352 1717.47 666.624 1706.91 672.603 1706.42C675.495 1706.14 681.306 1705 683.238 1714.55C685.145 1724.17 693.64 1774.88 693.64 1774.88C693.64 1774.88 674.756 1736.27 622.929 1719.41C613.759 1716.19 573.67 1708.57 573.903 1740.31C574.383 1759.15 597.353 1767.61 637.17 1783.07C689.503 1803.59 716.311 1822.69 703.951 1877.71C692.188 1930.53 640.542 1939.22 615.433 1939.22C590.375 1939.22 532.711 1921.65 532.711 1863.69C532.711 1822.7 572.918 1823.66 577.833 1835.94ZM852.39 1518.47L873.492 1528.47C885.658 1533.18 893.427 1531.1 896.215 1529.94C899.159 1528.66 910.3 1516.71 912.725 1506.53C913.867 1502.38 913.257 1498.77 911.052 1496.11C902.843 1486.38 888.303 1441.7 882.908 1417.55C880.911 1408.59 883.336 1383.86 885.217 1363.95C886.864 1346.85 887.875 1336.23 887.019 1333.5C885.58 1329.27 879.263 1325.18 872 1320.58L860.496 1312.74C854.362 1307.72 854.089 1300.89 853.752 1293.55L852.533 1282.15C849.861 1271.54 795.868 1216.39 787.502 1215.89C775.376 1215.09 772.224 1228.4 771.446 1236.4C770.966 1241.09 776.374 1261.99 781.251 1280.53L786.633 1302.87C792.159 1338.01 829.511 1399.89 845.438 1426.29L853 1439.13C856.268 1446.58 854.997 1452.45 849.187 1455.75C843.545 1458.99 794.999 1453.92 771.809 1448.58C761.848 1446.29 749.553 1441.33 737.556 1436.46C723.821 1430.99 710.799 1425.67 703.277 1425.3C694.496 1424.84 690.333 1426.62 687.103 1428.11L681.838 1429.58L676.598 1427.9C670.165 1425.06 658.142 1419.87 625.316 1416.9C577.47 1412.42 573.877 1422.04 571.932 1427.24C569.558 1433.86 598.805 1464.96 604.032 1469.12C610.686 1474.49 632.202 1482.67 645.341 1480.5C660.36 1478.08 684.847 1475.05 687.882 1475.66L692.81 1478.67L697.388 1481.91C701.539 1483.61 728.282 1485.07 736.363 1485.5C745.688 1486.01 770.175 1491.08 788.073 1494.83L808.072 1498.86C815.906 1500.3 836.087 1510.26 852.39 1518.47Z" fill="black"/>
<path fill-rule="evenodd" clip-rule="evenodd" d="M1347.34 897.958C1346.28 896.648 1345.4 896.571 1344.84 896.713C1344.33 896.882 1343.65 897.362 1343.45 898.918C1342.57 905.584 1334.2 922.718 1327.56 925.247C1314.11 930.447 1307.15 946.219 1302.1 957.71C1299.52 963.637 1297.01 969.292 1295.01 969.37C1294.15 969.435 1293.21 968.514 1292.17 966.594C1283.88 952.302 1288.52 930.447 1292.25 912.835L1293.1 908.516C1296.14 893.665 1313.52 872.862 1323.91 860.385L1328.5 854.86C1335.57 846.04 1337.34 816.158 1336.02 813.914C1335.59 813.784 1335.31 814.031 1335.14 814.29C1334.98 814.42 1334.84 814.578 1334.74 814.757L1334.58 814.731V814.887C1334.15 815.354 1333.79 815.406 1333.44 816.91C1331.58 826.248 1314.52 845.223 1285.36 870.436C1279.38 875.611 1272.57 884.963 1266.99 892.472C1263.4 897.401 1259.19 903.081 1258.07 903.354C1250.85 864.808 1263.92 842.772 1270.13 832.124L1273.03 826.715C1285.36 793.15 1317.12 767.729 1317.46 767.495C1317.89 766.523 1317.89 765.485 1317.11 764.824C1315.89 763.89 1313.66 764.292 1310.14 766.056L1308.23 767.016C1297.15 772.398 1263.74 788.675 1243.25 827.87C1228.53 856.092 1222.83 887.634 1222.83 911.421C1222.83 923.561 1224.3 933.625 1226.79 940.292C1233.99 959.487 1246.59 1007.19 1250.47 1025.92C1252.88 1037.53 1253.26 1077.38 1253.26 1102.36C1253.26 1114.57 1253.21 1123.11 1253.21 1123.44C1253.13 1123.44 1246.85 1143.7 1246.85 1143.7C1246.83 1143.9 1243.79 1159.73 1217.93 1186.17C1191.89 1212.77 1162.89 1221.23 1162.63 1221.33C1150.98 1222.24 1140.36 1221.76 1139.98 1220.24C1139.98 1189.84 1087.92 1119.12 1061.28 1095.79C1034.1 1071.96 1012.37 1054.89 975.46 1032.43C937.874 1009.55 896.072 913.639 895.592 912.705L891.974 899.748C891.974 899.748 889.95 873.873 889.393 867.142C890.755 867.92 892.531 869.023 892.531 869.023L905.345 876.48L920.066 882.135C920.196 882.174 939.339 885.922 939.339 885.922C939.339 885.961 950.052 891.447 950.052 891.447L959.987 897.906L975.434 909.06L991.296 917.4C991.62 917.491 1010.35 918.45 1010.35 918.45L1010.78 916.907C1010.78 916.907 989.091 906.726 989.039 906.726C989.039 906.415 981.232 893.056 981.232 893.056C978.196 888.697 975.165 884.335 972.14 879.969C971.841 879.762 960.869 873.212 960.869 873.212C956.224 872.505 951.572 871.848 946.914 871.241C946.914 871.124 944.177 868.776 942.763 867.505C943.982 866.792 946.278 865.365 946.278 865.365C946.278 865.534 961.219 867.259 961.271 867.259C961.271 867.414 974.565 876.454 974.565 876.454L989.078 887.634C989.312 887.751 1002.81 892.991 1002.81 892.991L1004.59 893.691L998.663 878.27C994.958 874.72 991.226 871.196 987.47 867.7L971.024 853.718C970.895 853.602 958.106 847.013 958.106 847.013C957.977 846.987 944.333 842.383 944.333 842.383C944.333 842.357 929.897 833.148 929.897 833.148C929.897 833.148 930.053 832.163 930.157 831.32C931.985 832.02 950.143 839.309 950.143 839.309C950.247 839.322 967.548 844.03 967.548 844.03C967.523 843.965 982.062 849.581 982.062 849.581C982.01 849.529 1002.93 859.736 1002.93 859.736C1003.11 859.827 1020.44 863.588 1020.44 863.588C1020.74 863.601 1041.81 859.827 1041.81 859.827C1042.09 859.697 1062.18 845.716 1062.18 845.716C1062.41 845.34 1066.11 837.026 1066.11 837.026L1066.9 835.107L1060.44 837.778C1060.39 837.778 1042.2 847.013 1042.18 847.013L1029.58 849.827C1029.58 849.763 1015.37 846.974 1015.34 846.974H1015.37C1015.37 846.806 1003.84 836.079 1003.84 836.079L987.47 820.23L972.672 812.656C972.464 812.565 955.162 809.764 955.162 809.764C955.162 809.725 944.631 804.368 944.449 804.278C944.501 804.278 944.527 804.083 944.527 803.811C944.527 802.54 944.203 799.764 944.073 798.467L965.836 800.296L989.675 798.376C989.675 798.441 1003.1 801.178 1003.1 801.178L1016.68 806.781L1030.58 808.661L1033.08 808.999L1017.59 794.174C1017.43 794.096 1001.96 782.916 1001.96 782.916C1001.78 782.826 988.988 778.144 988.988 778.144C988.754 778.092 967.432 776.289 967.004 776.25C967.185 776.237 967.211 775.874 967.211 775.342C967.211 774.045 967.004 772.203 966.887 771.257L976.965 769.545C976.965 769.609 993.099 773.241 993.099 773.241C993.099 773.293 1008.38 782.462 1008.38 782.462L1024.89 788.104C1025.37 788.117 1049 784.408 1049 784.408L1050.41 784.213L1043.21 774.707C1042.81 774.395 1030.93 770.699 1030.91 770.699C1030.91 770.634 1021.1 763.384 1021.1 763.384L1006.48 753.112C1006.28 752.995 995.369 749.286 995.369 749.286C995.187 749.221 977.989 746.471 977.937 746.458C977.937 746.277 969.481 738.495 969.299 738.365C969.559 738.313 970.091 735.603 970.285 734.371L979.377 736.913L991.076 742.49L1007.69 747.755L1004.02 740.427L997.56 733.683L991.906 726.394L994.357 725.785C994.357 726.005 1012.03 735.019 1012.03 735.019L1025.81 739.714C1025.81 739.792 1036.44 749.766 1036.44 749.766C1036.6 749.895 1056.73 761.257 1056.73 761.257L1058.75 762.398L1055.08 752.567C1054.98 752.347 1044.06 738.378 1044.06 738.378L1034.97 722.659C1034.89 722.477 1018.43 705.733 1018.43 705.733C1018.27 705.578 997.327 694.385 997.275 694.385C997.275 694.294 989.299 685.254 989.299 685.254C984.417 680.288 979.544 675.312 974.682 670.326C974.682 670.131 973.19 665.021 972.425 662.427C974.902 663.218 986.614 667.109 986.614 667.109L1003.01 671.74C1003.01 671.779 1014.71 679.068 1014.71 679.068C1014.71 679.145 1024.46 690.987 1024.46 690.987C1024.81 691.259 1040.35 697.796 1040.35 697.796L1079.94 702.932L1082.25 703.217L1071.38 691.778C1071.11 691.57 1050.13 682.245 1050.13 682.245L1037.53 673.063C1037.53 672.894 1030.49 660.261 1030.49 660.261L1023.15 647.24C1023.02 647.045 1011.17 635.878 1011.17 635.878C1010.98 635.749 996.393 627.37 996.393 627.37L981.958 615.36C981.958 615.243 978.482 608.045 976.264 603.246L986.29 612.909L1005.45 629.679C1005.68 629.821 1020.3 636.345 1020.3 636.345L1032.81 646.462L1047.35 661.299C1047.86 661.532 1070.58 664.736 1070.58 664.736L1073.42 665.151L1050.35 645.165C1050.35 644.801 1045.13 628.784 1045.13 628.784C1041.14 624.901 1037.11 621.057 1033.05 617.254L1026.77 609.874C1026.77 609.679 1020.52 590.627 1020.52 590.627C1016.22 586.153 1011.89 581.713 1007.52 577.307C1007.52 577.203 986.679 557.761 986.627 557.684V557.645C986.627 557.346 985.888 554.376 985.46 552.418C987.055 553.222 989.234 554.376 989.234 554.376L1008.36 565.517C1008.55 565.608 1031.32 572.119 1031.32 572.119L1055.08 577.748L1082.54 582.132L1076.08 569.071C1075.63 568.656 1061.97 563.092 1061.97 563.092L1049.3 555.699C1049.17 555.66 1033.69 549.123 1033.69 549.123L1020.06 543.546C1020.06 543.417 1011.22 532.003 1006.29 525.7C1011.02 528.878 1018.33 533.845 1018.33 533.845C1018.68 533.962 1030.61 534.909 1030.61 534.909L1068.03 534.922C1068.03 535.025 1083.17 543.209 1083.17 543.235C1083.17 543.287 1096.09 557.217 1096.09 557.217L1097.79 559.045L1096.22 543.326C1096.07 542.872 1087.86 532.613 1087.86 532.613C1087.62 532.431 1065.69 520.318 1065.69 520.318L1048.26 513.755C1048.13 513.716 1021.87 509.073 1021.74 509.073V509.034C1021.74 508.788 1016.72 502.808 1016.72 502.808C1016.61 502.757 997.496 485.066 997.496 485.066C994.406 483.451 991.306 481.856 988.196 480.28C988.196 480.228 985.278 477.232 983.462 475.338H993.293C993.293 475.494 1008.36 484.547 1008.36 484.547C1008.49 484.638 1028.61 491.123 1028.61 491.123L1054.28 494.871H1054.25C1054.25 495.143 1063.77 505.804 1063.77 505.804L1077.65 514.326C1082.91 515.297 1088.18 516.235 1093.46 517.14L1095.66 517.49L1063.19 477.699C1062.98 477.504 1047.46 469.139 1047.46 469.139C1047.33 469.061 1029.12 463.471 1029.12 463.471C1029.12 463.277 1013.09 445.093 1013.09 445.093C1012.9 444.898 992.827 432.824 992.827 432.824C987.974 431.596 983.11 430.411 978.236 429.27C979.143 427.804 982.165 422.824 982.165 422.798C982.217 422.941 998.248 415.691 998.248 415.691C998.248 415.729 1021.75 411.099 1021.75 411.099C1022.38 410.555 1024.16 404.939 1024.16 404.939C1023.86 403.992 1013.82 397.481 1013.82 397.481C1009.82 396.18 1005.81 394.901 1001.79 393.642C1001.05 393.733 994.694 397.455 994.694 397.481C994.694 397.364 975.032 398.259 975.032 398.259C975.032 398.246 951.531 392.721 951.531 392.695C951.531 392.578 927.316 372.397 927.316 372.397C923.61 370.489 919.896 368.595 916.175 366.717C915.903 366.665 875.904 361.983 875.8 361.983C875.8 361.477 866.397 347.444 866.397 347.444L853.531 333.384C853.479 333.307 837.15 318.573 837.15 318.573L836.645 319.649L831.171 331.763C831.197 331.646 825.776 340.025 825.776 340.025V340.232C825.776 341.776 826.541 349.869 826.541 349.869C826.775 350.375 832.066 355.796 832.183 355.952C831.911 355.952 830.186 364.382 830.186 364.447C830.134 363.863 808.241 364.758 808.202 364.758C808.202 364.655 790.317 356.445 790.317 356.445C790.2 356.367 776.491 351.724 776.491 351.724C776.218 351.633 744.326 352.619 744.326 352.619C743.625 352.982 738.217 361.36 738.217 361.36L737.491 362.463L751.524 364.486C751.524 364.538 753.599 365.861 754.754 366.6L751.161 369.531C751.161 369.35 731.641 368.455 731.641 368.455C731.317 368.507 717.582 374.071 717.582 374.071L716.156 374.68L722.965 379.258C723.393 379.414 752.562 380.335 752.562 380.335L774.221 385.912V385.938C774.221 386.236 778.346 392.124 778.346 392.124C778.346 392.124 781.277 396.262 782.379 397.883L773.106 402.993C773.222 402.98 746.751 414.147 746.751 414.147L692.032 444.873C691.98 444.821 656.002 450.19 656.002 450.19C655.729 450.281 641.917 457.972 641.917 457.972C641.618 458.179 630.529 473.549 630.529 473.549C630.412 473.743 624.135 492.874 624.135 492.874C623.642 525.376 624.939 526.128 625.406 526.387C626.483 527.062 635.873 532.38 643.136 528.489C651.359 524.014 668.959 519.617 678.102 517.672C682.616 516.751 684.73 518.372 685.106 520.045C685.599 521.874 684.237 524.364 680.865 525.285L678.971 525.843C663.07 530.162 646.845 535.389 647.377 541.523L650.178 546.205C657.273 551.38 675.716 548.929 685.508 546.711L695.728 543.845C704.548 541.16 714.573 538.164 723.133 539.124C728.075 539.694 732.433 541.822 737.582 544.247C744.559 547.619 752.536 551.445 764.429 552.223C784.26 553.598 797.8 557.606 798.864 558.773C801.522 564.181 799.81 572.184 798.475 578.617L797.45 584.44C791.899 634.776 735.701 691.687 708.62 718.988C701.305 726.381 696.467 731.258 695.43 733.294L692.317 740.492C689.684 747.172 687.544 752.93 678.958 756.38C673.991 758.313 662.409 767.029 648.972 777.093C629.569 791.567 605.51 809.569 598.883 808.791C587.794 807.481 536.006 771.827 533.827 769.635C483.387 720.83 462.285 730.843 449.653 736.809L447.656 737.743C432.611 744.591 416.813 787.209 415.387 796.353L409.291 822.604L404.609 841.89C403.221 848.414 397.009 864.444 391.081 879.93L378.916 913.652C376.905 921.459 372.029 932.432 368.06 941.303L362.678 954.442C358.929 969.863 358.864 1054.32 365.388 1061.79L365.674 1062.1L366.958 1062.48C373.507 1061.81 387.567 1047.32 394.311 1040.33L395.867 1038.71C401.574 1032.97 407.631 1017.67 407.631 1011.24C407.631 1004.93 404.687 991.756 403.519 988.163C394.389 960.278 397.839 933.703 399.499 920.967L400.16 915.286C400.64 909.372 406.567 902.822 412.326 896.545L419.602 888.127C423.597 882.81 428.032 881.046 431.988 879.476L438.486 875.767L439.497 874.716C443.803 870.398 451.028 863.108 454.192 853.355L460.366 826.651L461.715 819.517C462.026 818.09 462.752 817.299 463.958 817.04C466.41 816.495 470.08 818.441 471.65 820.529L516.291 872.33C527.731 882.07 539.481 893.691 539.481 896.246L539.468 896.467C539.468 896.428 539.196 896.48 539.196 896.48C532.945 897.128 501.493 890.423 496.266 888.931C453.531 876.402 434.024 878.607 418.979 897.439C401.833 919.008 407.229 985.063 410.731 992.3C413.947 998.863 429.589 1079.34 430.289 1090.07C430.989 1100.58 435.062 1119.39 439.316 1123.71L440.483 1124.9C445.749 1130.12 459.627 1144.06 462.078 1157.81C464.724 1172.77 496.513 1212.85 508.639 1216.44C509.548 1216.71 510.507 1216.75 511.436 1216.57C512.365 1216.39 513.238 1215.99 513.983 1215.41C523.23 1208.84 527.432 1176.77 527.938 1163.23C528.535 1146.36 522.478 1138.2 516.045 1129.47L513.581 1126.06C508.847 1119.6 500.507 1117.25 495.008 1115.71C492.661 1115.05 489.444 1114.27 489.444 1113.54C489.444 1113.3 488.796 1088.57 480.91 1083.8C474.775 1080.03 468.498 1056.18 467.759 1047.1C467.045 1038.08 463.556 1016.32 458.874 1006.76C454.14 997.164 450.159 979.473 452.182 965.829C453.025 959.967 457.201 958.125 460.599 957.593C466.462 956.659 473.232 959.189 474.282 961.238C476.617 965.933 521.687 993.117 536.887 998.954C546.329 1002.53 559.105 1013.32 570.388 1022.95C578.417 1029.68 585.317 1035.48 589.623 1037.54C595.433 1040.34 611.905 1040.66 625.134 1040.92C632.15 1041.04 639.439 1041.21 640.425 1041.79C635.056 1043.95 635.12 1053.36 635.561 1056.4C641.048 1095.35 782.742 1202.33 793.702 1208.34C806.386 1215.15 851.884 1262.66 855.866 1269.11C859.99 1275.5 863.998 1282.43 863.233 1287.78C862.143 1295.68 865.308 1304.7 871.637 1312.07C877.694 1318.93 885.592 1323.07 892.894 1323.07C899.224 1323.07 903.452 1317.39 906.578 1313.29L907.239 1312.43C915.695 1301.24 928.237 1284.85 929.858 1259.21C931.583 1232.92 943.593 1222.47 947.51 1221.79C949.261 1221.46 950.545 1221.99 951.012 1223.15C951.492 1224.34 950.908 1226.34 948.535 1227.91C943.347 1231.42 940.104 1243.06 936.551 1255.5C936.525 1255.6 935.228 1268.19 935.228 1268.19C934.929 1277.6 934.566 1288.26 925.176 1298.59C911.117 1313.82 894.983 1348.93 890.806 1393.26C888.277 1419.97 900.3 1458.43 926.525 1507.46L928.354 1510.96L935.448 1522.87C942.621 1534.4 954.605 1553.57 954.047 1558.05C953.282 1564.38 952.685 1569.35 941.765 1583.06C929.755 1598.13 885.93 1649.13 881.65 1649.93C872.934 1649.93 871.468 1651.05 864.452 1656.37L857.059 1661.99C848.966 1667.74 847.552 1672.05 846.19 1675.85C845.192 1678.71 844.245 1681.22 840.484 1684.03L837.669 1685.92C837.086 1686.43 835.503 1688.66 817.89 1706.29C797.696 1726.25 788.682 1748.84 791.795 1771.29C792.794 1778.31 798.838 1780.76 816.762 1781.58C834.66 1782.41 875.697 1753.69 877.525 1744.34L878.161 1740.77C879.73 1732.34 882.363 1718.13 887.006 1716.08C892.609 1713.63 902.207 1702.55 909.249 1694.5L910.611 1692.98C914.36 1688.65 915.267 1684.34 916.162 1680.24C916.927 1677 917.628 1673.73 919.755 1670.75C921.428 1668.57 923.879 1667.38 926.72 1666.07C932.167 1663.46 939.028 1660.14 943.969 1647.73C948.885 1635.56 978.223 1614.51 999.649 1599.19C1010.6 1591.41 1019.18 1585.19 1021.23 1582.45C1024.04 1578.78 1025.77 1571.71 1025.77 1564.21C1025.77 1555.32 1023.38 1545.85 1017.79 1540.58C1009.66 1533.04 1002.01 1510.57 999.726 1503.53V1503.37C999.726 1500.46 999.454 1495.11 999.013 1485.16C998.961 1484.71 998.961 1484.23 998.961 1483.8C998.961 1457.49 1038.08 1431.74 1054.96 1420.65L1062.67 1415.34C1123.9 1361.33 1135.88 1320.27 1138.15 1309L1139.4 1295.49C1139.77 1286.14 1140.09 1277.23 1145.73 1276.07C1147.93 1275.64 1151.6 1277.41 1153.83 1280.07C1155.1 1281.51 1156.97 1284.51 1155.73 1287.97C1152.94 1295.55 1152 1371.69 1151.98 1374.86C1152.19 1375.39 1158.57 1382.91 1158.57 1382.91L1159.73 1384.27L1160.08 1382.5C1160.16 1381.61 1163.68 1360.86 1163.68 1353.52C1163.68 1345.31 1176.88 1310.15 1180.07 1309.54C1180.07 1309.64 1180.28 1309.94 1180.28 1309.94C1181.82 1314.81 1183.79 1326.82 1183.79 1339.47C1183.79 1351.91 1181.91 1364.99 1175.87 1372.56C1166.7 1383.91 1159.4 1401.87 1154.64 1413.73L1150.23 1423.8C1149.73 1425.2 1149.51 1426.68 1149.59 1428.16C1149.59 1437.81 1154.56 1458.38 1157.83 1462.21C1158.68 1463.12 1159.37 1463.12 1159.85 1462.95C1160.91 1462.55 1161.87 1461.17 1161.87 1453.09C1161.87 1422.31 1187.74 1399.99 1188.05 1399.82C1210.85 1381.73 1215.82 1348.18 1215.82 1322.61C1215.82 1303.26 1212.98 1288.49 1212.9 1288.09C1209.29 1282.74 1205.64 1277.42 1201.95 1272.14C1202.48 1272.4 1205.45 1269.96 1206.44 1269.17C1207.42 1270.44 1217.81 1284.21 1217.81 1284.21C1219.56 1286.66 1224 1293.81 1224 1296.65C1224 1312.48 1226.44 1323.33 1228.18 1331.28L1228.6 1333.16C1230.43 1341.59 1241.83 1368.53 1242.34 1369.68L1243.56 1372.52L1243.93 1369.44C1243.93 1369.31 1245.74 1355.22 1243.93 1343.17C1242.9 1336.41 1244.19 1328.13 1245.5 1319.18L1247.58 1298.63C1247.58 1281.94 1245.19 1271.4 1239.24 1261.8L1236.2 1257.19C1235.01 1255.31 1233.84 1253.47 1233.97 1253.1L1236.2 1252.14C1284.36 1235.79 1306.77 1200.34 1315.9 1180.7C1325.48 1159.9 1325.98 1127.86 1325.98 1121.7C1325.98 1113.67 1325.63 1072.04 1318.64 1050.65C1314.54 1038.03 1315.85 1024.48 1317.23 1009.85L1318.72 984.804C1318.72 967.671 1327.73 954.947 1336.47 942.652L1346.89 926.518C1353.7 913.081 1350.08 901.317 1347.34 897.958Z" fill="black"/>
<path fill-rule="evenodd" clip-rule="evenodd" d="M808.306 361.697C809.11 361.749 819.343 356.886 819.343 356.886C819.797 355.965 817.423 346.276 817.423 346.276C810.037 337.516 802.614 328.788 795.154 320.09L794.052 318.806L793.676 320.415L791.289 330.907C791.302 330.803 784.221 347.742 784.221 347.742L783.896 348.455L798.812 356.082L808.306 361.697Z" fill="black"/>
<path fill-rule="evenodd" clip-rule="evenodd" d="M812.741 428.92C815.102 429.802 818.669 429.413 822.041 427.908C827.203 425.483 830.251 421.332 828.941 418.362L826.567 416.222C824.233 415.327 820.666 415.729 817.346 417.26C812.923 419.231 810.096 422.513 810.096 425.301C810.096 425.807 810.238 426.352 810.407 426.78L812.741 428.92ZM901.831 392.15L906.085 394.446C906.426 395.182 906.929 395.833 907.555 396.349C908.181 396.865 908.915 397.234 909.703 397.429C910.61 397.619 911.548 397.6 912.446 397.376C913.344 397.151 914.18 396.726 914.891 396.132C916.033 395.237 916.305 393.564 915.579 391.45C914.437 387.935 910.767 384.096 906.811 384.096C901.714 384.096 897.058 384.68 897.058 388.441C897.071 390.555 899.496 391.359 901.831 392.15ZM906.928 407.182C904.956 408.635 904.087 410.593 904.645 412.578L905.047 414.225C905.553 416.17 905.735 416.572 907.524 416.78L910.767 417.364C914.917 418.427 921.48 415.846 922.971 412.526C923.477 411.449 923.879 409.361 921.052 407.39C916.188 404.147 910.196 404.848 906.928 407.182ZM920.196 464.911C919.003 464.34 919.508 462.447 920.429 459.697C921.169 457.453 921.843 455.3 920.689 454.12C919.677 453.147 917.874 453.225 914.813 454.366C903.789 458.335 902.103 469.567 900.884 477.777L900.508 480.306C899.872 483.963 901.753 485.208 902.92 485.623C906.72 486.972 913.581 483.522 915.125 480.89C916.85 478.049 926.369 475.455 933.308 473.562L935.967 472.835C939.184 471.953 940.831 470.721 941.064 469.048C941.414 466.856 938.989 464.859 936.836 463.575C934.839 462.395 931.869 463.238 928.756 464.133C925.669 464.976 922.349 465.845 920.196 464.911ZM803.675 469.126C806.114 468.88 808.02 467.933 809.227 466.195C812.741 460.955 812.923 453.536 809.512 446.805C806.218 440.385 800.576 436.274 794.817 436.066L794.895 436.092L793.637 435.923L783.028 436.753C777.425 437.999 772.224 442.136 770.966 446.208C770.33 448.271 770.693 450.151 772.107 451.565C780.615 460.579 795.31 469.761 803.675 469.126ZM699.204 460.592C700.475 463.718 706.299 464.068 714.846 461.526L716.726 460.955L732.043 454.963L754.235 440.372C754.883 439.866 760.681 435.508 759.488 432.72C758.644 430.891 755.752 431.215 753.664 431.604C747.542 432.72 741.537 435.664 735.143 438.777L726.116 442.966L722.135 444.6C708.4 450.281 697.142 455.378 699.204 460.592ZM652.539 476.83C647.922 476.83 645.846 479.333 644.16 481.551L642.098 483.886C638.544 486.933 637.455 494.3 637.896 499.903C638.078 502.238 638.739 506.466 641.035 507.815C645.431 510.525 647.532 508.619 652.02 504.352L655.496 501.369C659.906 497.672 665.029 493.483 665.664 487.037C665.976 484.314 665.327 482.07 663.809 480.384C661.112 477.453 656.183 476.83 652.539 476.83ZM678.063 478.866C676.74 478.581 675.949 478.996 675.534 479.424C674.198 480.734 674.743 483.535 675.158 485.779L675.417 487.348L675.145 488.295C674.847 489.099 674.51 490.124 675.145 490.993C675.716 491.862 677.104 492.238 679.464 492.238C682.46 492.264 682.758 491.953 683.77 489.281L684.574 487.219C685.3 485.403 685.313 483.769 684.626 482.472C683.394 480.189 680.333 479.32 678.063 478.866ZM702.745 518.865C704.311 518.793 705.789 518.12 706.872 516.986C707.955 515.851 708.559 514.344 708.559 512.776C708.559 511.208 707.955 509.7 706.872 508.566C705.789 507.432 704.311 506.759 702.745 506.686C701.953 506.691 701.17 506.853 700.441 507.162C699.711 507.471 699.051 507.921 698.496 508.486C697.942 509.052 697.504 509.721 697.21 510.456C696.915 511.191 696.768 511.977 696.779 512.769C696.779 516.128 699.438 518.865 702.745 518.865ZM813.935 504.028C813.078 503.868 812.194 503.946 811.378 504.252C810.562 504.558 809.845 505.082 809.304 505.766C807.657 507.685 797.632 514.559 790.304 519.591L780.849 526.31L780.083 527.049C778.903 528.164 778.32 528.852 779.085 531.16L780.239 532.782L782.729 532.276L786.413 530.914L791.717 530.084C796.944 529.409 802.664 528.631 805.362 525.869L808.876 520.123L814.103 511.732C816.606 508.969 816.736 507.075 816.386 505.999C816.183 505.486 815.851 505.034 815.421 504.689C814.991 504.343 814.479 504.115 813.935 504.028ZM824.92 537.931C824.92 541.03 826.463 542.25 827.332 542.678C829.68 543.923 833.052 542.716 835.062 539.915L841.858 534.001C845.542 531.355 849.653 528.372 853.298 523.742C856.67 519.397 855.217 516.725 854.011 515.584C851.702 513.327 846.956 512.808 845.347 514.131L843.389 515.467C838.94 518.359 828.409 525.194 825.763 533.508C825.24 534.926 824.956 536.42 824.92 537.931ZM869.199 534.584C867.811 532.561 865.425 531.718 863.648 532.587L858.862 536.219C855.49 538.968 851.287 542.457 847.643 543.482C838.798 545.855 826.801 549.811 826.061 555.881L826.048 556.672C826.048 558.345 826.801 559.344 827.527 559.901C830.886 562.638 839.044 561.017 844.945 558.786C853.998 555.44 859.497 551.354 866.605 544.895C870.976 540.914 870.781 536.932 869.199 534.584ZM834.803 604.491L831.924 604.167C824.479 606.152 811.769 628.044 802.845 644.36L801.25 647.188L774.506 697.381L766.115 713.36C765.181 714.812 765.505 716.939 766.906 718.327C768.203 719.624 770.473 720.337 773.222 718.599C777.684 715.629 793.961 699.482 801.51 686.798L811.561 672.933C818.007 664.515 825.348 655.099 829.654 643.881L831.171 640.016C841.379 613.544 842.974 609.498 834.803 604.491ZM935.37 508.009C934.609 507.992 933.852 508.125 933.142 508.401C932.432 508.676 931.783 509.089 931.233 509.615C930.682 510.142 930.241 510.771 929.934 511.468C929.627 512.165 929.46 512.916 929.443 513.677C929.443 516.803 932.102 519.345 935.37 519.345C938.639 519.345 941.246 516.803 941.246 513.677C941.234 512.919 941.072 512.17 940.77 511.474C940.468 510.778 940.032 510.149 939.486 509.622C938.94 509.096 938.295 508.682 937.589 508.405C936.883 508.128 936.129 507.994 935.37 508.009ZM932.556 531.653C932.556 534.792 935.215 537.334 938.483 537.334C939.237 537.343 939.985 537.202 940.685 536.921C941.385 536.64 942.022 536.224 942.56 535.696C943.099 535.169 943.528 534.54 943.823 533.846C944.118 533.152 944.274 532.407 944.281 531.653C944.264 530.132 943.644 528.679 942.557 527.614C941.47 526.549 940.005 525.959 938.483 525.972C936.946 525.948 935.462 526.531 934.352 527.594C933.242 528.658 932.597 530.117 932.556 531.653ZM938.003 544.221C934.307 544.221 931.246 546.672 931.246 549.603C931.246 552.573 934.307 554.999 938.003 554.999C941.752 554.999 944.786 552.586 944.786 549.603C944.799 546.672 941.752 544.221 938.003 544.221ZM937.731 559.94C933.477 559.94 930.079 562.625 930.079 565.932C930.079 569.214 933.477 571.898 937.731 571.898C941.985 571.898 945.331 569.201 945.331 565.932C945.331 562.625 941.985 559.94 937.731 559.94ZM938.003 579.888C933.321 579.888 929.443 582.676 929.443 586.191C929.443 589.654 933.321 592.442 938.003 592.442C942.711 592.442 946.512 589.654 946.512 586.191C946.512 582.676 942.711 579.888 938.003 579.888ZM935.111 613.324C940.429 612.857 944.333 609.939 944.034 606.567L942.361 603.506C940.532 601.962 937.342 601.184 934.099 601.482C928.963 601.949 925.163 604.725 925.163 607.902L925.189 608.227L926.914 611.275C928.782 612.857 931.83 613.635 935.111 613.324ZM934.813 634.322C940.766 633.44 944.968 630.172 944.488 626.799L942.737 623.998C940.662 622.403 936.94 621.767 933.14 622.325C927.29 623.142 922.984 626.475 923.464 629.847L925.267 632.636C927.368 634.244 931.013 634.854 934.813 634.322ZM924.787 644.451C924.787 648.122 929.249 651.053 935.098 651.053C940.921 651.053 945.331 648.122 945.331 644.451C945.331 640.781 940.921 637.889 935.098 637.889C929.236 637.902 924.787 640.781 924.787 644.451ZM943.023 665.916C943.023 662.025 937.705 659.055 930.909 659.055C924.191 659.055 918.873 662.025 918.873 665.916C918.873 669.781 924.191 672.803 930.909 672.803C937.705 672.803 943.023 669.781 943.023 665.916ZM935.293 684.035C935.293 680.235 931.311 677.161 926.499 677.161C921.61 677.161 917.628 680.235 917.628 684.035C917.628 687.835 921.61 690.922 926.499 690.922C931.324 690.922 935.293 687.835 935.293 684.035ZM931.142 706.693C931.142 702.426 926.94 698.911 921.713 698.911C916.551 698.911 912.362 702.426 912.362 706.693C912.362 710.999 916.538 714.462 921.713 714.462C926.94 714.462 931.142 710.999 931.142 706.693ZM923.49 728.742C923.49 724.903 920.04 721.855 915.838 721.855C911.662 721.855 908.134 724.89 908.134 728.742C908.134 732.516 911.649 735.603 915.838 735.603C920.04 735.616 923.49 732.516 923.49 728.742ZM910.235 741.789C906.188 741.789 902.842 744.863 902.842 748.676C902.842 752.45 906.188 755.524 910.235 755.524C914.269 755.524 917.576 752.438 917.576 748.676C917.589 744.863 914.269 741.789 910.235 741.789ZM903.984 774.875C908.134 774.875 911.662 772.203 911.662 768.896C911.662 765.589 908.147 762.956 903.984 762.956C899.807 762.956 896.383 765.602 896.383 768.896C896.383 772.19 899.807 774.875 903.984 774.875ZM896.941 789.362C900.793 789.362 903.958 787.119 903.958 784.291C903.958 781.477 900.845 779.246 896.941 779.246C892.907 779.246 889.847 781.464 889.847 784.291C889.847 787.119 893.011 789.362 896.941 789.362ZM890.106 803.292C893.776 803.292 896.889 801.022 896.889 798.208C896.889 795.419 893.776 793.15 890.106 793.15C886.332 793.15 883.349 795.419 883.349 798.208C883.336 801.022 886.332 803.292 890.106 803.292ZM690.138 790.958L691.357 791.191L700.592 789.531C708.789 787.715 721.136 784.953 736.323 784.551C747.426 784.252 759.462 788.13 768.203 790.984C776.141 793.63 780.096 794.771 781.601 793.137C782.548 792.06 781.964 790.491 781.445 789.388C779.059 784.239 768.605 767.314 734.495 766.536C712.329 766.03 694.263 781.101 690.398 787.469C689.632 788.766 689.425 789.726 689.814 790.439L690.138 790.958ZM816.982 855.08C819.148 853.693 820.082 851.241 819.94 847.726C819.213 833.927 815.517 832.357 807.904 832.357C800.187 832.357 794.61 840.1 794.61 844.121C794.61 847.895 797.385 851.202 802.768 853.9C805.816 855.508 812.832 857.804 816.982 855.08ZM921.636 1023.78C932.634 1028.91 936.499 1030.74 938.146 1031.25C938.198 1031.25 938.25 1031.4 938.25 1031.4C938.25 1031.4 938.328 1031.34 938.328 1031.31C939.093 1031.55 939.339 1031.46 939.521 1031.2C939.417 1031.12 938.989 1030.47 938.756 1030.29C938.885 1030.18 939.015 1029.91 939.015 1029.91C939.015 1029.91 938.328 1029.63 938.276 1029.56C931 1020.38 887.188 958.086 877.863 917.089C876.397 910.331 874.672 904.041 870.262 901.525C867.785 900.137 864.659 900.033 860.859 901.304H860.833C859.951 901.564 859.316 902.29 858.914 903.354C858.537 904.508 858.374 905.721 858.434 906.933C858.434 921.576 874.036 961.886 879.134 970.174C907.33 1015.94 921.104 1023.47 921.636 1023.78ZM1279.76 1041.59L1278.08 1041.91C1278.14 1042.17 1278.51 1054.4 1278.51 1070.11C1278.51 1093.01 1277.72 1123.55 1273.75 1137.28C1270.54 1148.39 1255.79 1169.67 1243.88 1186.7C1243.88 1186.7 1230.03 1207.48 1230.03 1207.51C1229.64 1208.2 1229.43 1208.99 1229.45 1209.79C1229.45 1211.84 1230.48 1213.77 1232.31 1214.98C1233.7 1215.94 1238.72 1218.4 1245.71 1210.06L1254.56 1200.71C1266.36 1188.93 1281.03 1174.32 1291.36 1142.05C1302.7 1106.63 1279.95 1042.2 1279.76 1041.59ZM910.78 1156.99C911.843 1158.05 913.568 1158.35 915.371 1157.7C916.759 1157.22 917.978 1156.35 918.878 1155.19C919.778 1154.03 920.322 1152.63 920.442 1151.17C920.87 1146.73 923.957 1140.78 928.548 1135.69C930.941 1132.97 932.186 1129.43 932.021 1125.81C931.857 1122.2 930.296 1118.78 927.666 1116.29L921.791 1113.94C918.017 1114.07 915.202 1117.1 915.047 1117.19C913.078 1126.61 911.154 1136.04 909.275 1145.49V1145.46C908.718 1147.03 908.212 1154.53 910.78 1156.99ZM1101.82 1261.45L1101.53 1261.32L1101.23 1261.45C1100.99 1261.63 1096.07 1263.93 1094.67 1268.74C1093.71 1271.98 1095.5 1274.79 1096.9 1277.12L1098.54 1280.2L1099.26 1286.36L1100.37 1295.43C1100.65 1296.37 1101.24 1297.18 1102.04 1297.74C1102.84 1298.3 1103.81 1298.58 1104.78 1298.52C1107.09 1298.44 1109.77 1296.66 1110.66 1293.07C1111.85 1288.21 1112.43 1281.62 1112.43 1272.85C1112.41 1264.85 1102.28 1261.55 1101.82 1261.45ZM805.31 1187.69C804.648 1186.92 734.611 1110.92 719.476 1091.01C704.055 1070.61 696.688 1069.07 689.139 1073.24C688.583 1073.56 688.112 1074.01 687.766 1074.55C687.421 1075.09 687.211 1075.71 687.155 1076.34C686.066 1084.63 703.562 1104.68 718.879 1119.4C740.292 1140.01 803.546 1188.46 804.194 1188.93L805.31 1187.69ZM530.805 963.378C516.616 954.571 492.051 949.682 491.805 949.578L491.156 951.069L518.405 971.614C522.893 975.297 542.724 987.605 549.131 982.573C549.546 982.26 549.878 981.851 550.099 981.381C550.321 980.911 550.425 980.394 550.402 979.875C550.194 976.179 543.32 971.237 530.805 963.378ZM524.151 847.104L526.071 846.287C528.522 843.524 522.88 835.677 516.019 829.335C509.832 823.629 503.542 819.945 500.248 820.127L498.38 820.931C497.98 821.419 497.776 822.039 497.81 822.669C497.81 826.248 502.712 832.578 508.406 837.895C514.605 843.602 520.948 847.311 524.151 847.104ZM596.963 837.182L594.175 837.351C588.883 839.568 580.479 853.018 573.773 870.047C569.052 882.07 565.486 895.183 565.486 903.081C565.486 906.83 566.29 909.372 568.08 910.124L570.829 909.955C576.121 907.699 584.499 894.223 591.283 877.246C595.991 865.197 599.518 852.084 599.518 844.173C599.518 840.45 598.753 837.895 596.963 837.182ZM465.891 754.124C459.056 754.124 453.609 757.366 453.609 761.464C453.609 765.537 459.056 768.74 465.891 768.74C472.83 768.74 478.225 765.537 478.225 761.464C478.225 757.366 472.83 754.124 465.891 754.124ZM422.3 844.873L424.427 844.678C428.123 842.863 433.713 832.811 437.928 820.269C442.39 806.923 444.828 792.592 440.509 791.061L438.421 791.282C434.66 793.137 429.083 803.162 424.906 815.691C420.367 829.05 418.071 843.382 422.3 844.873ZM433.713 913.911C437.344 909.047 438.071 903.574 435.373 901.525L432.234 900.851C429.615 901.188 426.489 903.393 424.154 906.648C420.523 911.512 419.796 916.972 422.481 918.982L425.633 919.721C428.24 919.319 431.404 917.141 433.713 913.911ZM429.537 989.525L429.238 989.343L427.877 989.201C422.974 990.342 426.424 1011.69 428.953 1022.92C432.546 1038.6 437.409 1051.26 440.781 1053.36L441.067 1053.57L442.403 1053.71C447.383 1052.57 443.855 1031.12 441.339 1019.99C437.772 1004.22 432.961 991.639 429.537 989.525ZM380.148 1018.19C376.192 1018.19 373.001 1021.12 373.001 1024.78C373.001 1028.25 376.192 1031.18 380.148 1031.18C384.078 1031.18 387.372 1028.25 387.372 1024.78C387.385 1021.12 384.091 1018.19 380.148 1018.19ZM501.493 1173.15C499.305 1173.14 497.201 1173.99 495.639 1175.53C494.078 1177.06 493.184 1179.15 493.153 1181.33C493.153 1185.74 496.902 1189.39 501.493 1189.39C503.671 1189.43 505.775 1188.6 507.345 1187.09C508.915 1185.58 509.824 1183.51 509.871 1181.33C509.841 1179.14 508.942 1177.05 507.372 1175.51C505.802 1173.98 503.688 1173.13 501.493 1173.15ZM911.714 1389.05C911.973 1389.45 912.725 1390.8 913.867 1390.67L914.346 1390.64L915.228 1389.32L922.751 1366.39L928.626 1351.11L933.645 1339.49C935.189 1335.58 935.189 1332.98 933.671 1331.46C931.259 1329.25 926.279 1331.14 925.669 1331.36C925.267 1331.68 911.532 1354.61 911.532 1354.61C908.847 1358.71 907.836 1364.23 907.836 1369.92C907.836 1378.01 909.859 1386.09 911.714 1389.05ZM946.032 1503.59L946.304 1501.29C946.486 1499.92 950.61 1468.03 940.805 1455.71C939.804 1454.37 938.534 1453.26 937.078 1452.45C935.621 1451.63 934.01 1451.13 932.348 1450.98C929.404 1450.7 927.381 1451.56 926.266 1453.41C920.287 1463.19 943.749 1500.03 944.786 1501.62L946.032 1503.59ZM1000.96 1564.27C999.839 1564.25 998.728 1564.46 997.689 1564.88C996.65 1565.29 995.703 1565.91 994.903 1566.69C994.103 1567.48 993.465 1568.41 993.026 1569.44C992.588 1570.47 992.357 1571.58 992.347 1572.7C992.347 1577.43 996.199 1581.1 1000.96 1581.1C1003.19 1581.1 1005.33 1580.21 1006.91 1578.64C1008.49 1577.06 1009.38 1574.92 1009.38 1572.68C1009.38 1570.45 1008.49 1568.31 1006.91 1566.73C1005.33 1565.15 1003.19 1564.27 1000.96 1564.27ZM871.637 1461.55C867.603 1461.55 864.166 1464.69 864.166 1468.56C864.166 1472.54 867.616 1475.61 871.637 1475.61C875.761 1475.61 879.082 1472.54 879.082 1468.56C879.082 1464.69 875.761 1461.55 871.637 1461.55ZM965.875 1585.93L964.967 1585.72C960.506 1585.72 943.619 1600.49 929.223 1615.23C927.952 1616.57 896.695 1648.64 900.832 1652.81L901.065 1653.07L902.077 1653.28C906.591 1653.28 923.451 1638.45 937.77 1623.8C939.119 1622.44 970.428 1590.49 966.161 1586.16L965.875 1585.93ZM872.013 1672.6C869.406 1672.6 865.321 1675.04 861.676 1678.69C857.318 1683.04 854.154 1689.08 856.488 1691.55L858.797 1692.38C861.456 1692.38 865.554 1690 869.186 1686.27C873.44 1681.86 876.708 1675.96 874.283 1673.46L872.013 1672.6ZM830.834 1731.94C827.631 1731.94 823.104 1734.57 819.148 1738.58C815.011 1742.73 812.638 1747.32 812.638 1750.51C812.638 1751.73 812.962 1752.72 813.727 1753.41L816.645 1754.52C819.797 1754.52 824.453 1751.97 828.331 1747.93C834.077 1742.06 836.385 1735.77 833.778 1733.04L830.834 1731.94ZM615.549 1433.08C609.375 1433.08 604.356 1436.59 604.356 1441.03C604.356 1445.44 609.388 1448.84 615.549 1448.84C621.775 1448.84 626.742 1445.44 626.742 1441.03C626.755 1436.59 621.775 1433.08 615.549 1433.08ZM706.727 1439.46C702.343 1439.46 698.932 1441.82 698.932 1444.93C698.932 1447.85 702.343 1450.25 706.727 1450.25C710.955 1450.25 714.457 1447.84 714.457 1444.93C714.457 1441.88 710.955 1439.46 706.727 1439.46ZM818.007 1476.7L818.681 1475.66C819.94 1470.42 793.689 1462.23 779.656 1458.68C762.808 1454.37 742.782 1450.92 738.36 1453.58L738.049 1453.79L737.335 1454.88C736.064 1460.17 762.302 1468.25 776.361 1471.92C793.196 1476.15 813.221 1479.5 817.709 1476.86L818.007 1476.7Z" fill="white"/>
</g>
<defs>
<clipPath id="clip0_45_59">
<rect width="1686" height="2280" fill="white"/>
</clipPath>
</defs>
</svg>
