<svg width="154" height="83" viewBox="0 0 154 83" fill="none" xmlns="http://www.w3.org/2000/svg">
<g clip-path="url(#clip0_45_73)">
<path d="M106.442 2.1946C113.179 1.00564 120.03 0.835763 126.824 0.722529C133.618 0.665912 140.695 1.40196 146.753 4.74237C152.301 7.00705 155.359 13.8011 153.321 19.5194C150.66 28.2951 144.375 35.3156 137.977 41.6001C121.785 58.3022 101.686 70.305 82.3794 82.9872C85.6065 78.288 88.2676 73.1358 90.2492 67.8138C91.7778 63.6242 93.2499 59.2647 93.4197 54.7353C93.6462 50.0927 92.6837 45.1104 89.683 41.4303C86.6823 38.0332 82.3794 35.995 78.0765 34.806C71.8486 33.0509 65.281 32.8811 58.8267 32.8811C44.1628 32.9943 29.6122 35.3722 15.2881 38.3163C10.2491 39.2222 5.32348 40.7509 0.171326 40.9773C4.53084 39.5619 8.38077 37.0141 12.5138 34.9759C31.8203 25.1811 51.8061 16.6886 72.4714 10.2342C83.5683 6.72397 94.9484 4.17619 106.442 2.1946Z" fill="#FF8000"/>
</g>
<defs>
<clipPath id="clip0_45_73">
<rect width="154" height="83" fill="white"/>
</clipPath>
</defs>
</svg>
