<svg width="356" height="334" viewBox="0 0 356 334" fill="none" xmlns="http://www.w3.org/2000/svg">
<path d="M69 176.2C68.2 176.7 67.4 177.1 66.6 177.6V156.1C68.3 154.4 69.8 152.6 71.2 150.8C78.3 141.3 77.5 126.5 69.6 117.8C68.7 116.8 67.7 115.9 66.6 115V0.600006H136.7C168.6 0.600006 194.5 26 194.5 57.3C194.5 84 175.8 106.3 150.5 112.4L164.6 132.4C164.3 132.7 164 132.9 163.8 133.2C151.9 133.3 142.5 136.7 133.5 144L133.2 144.2L133 144.4C131.8 145.5 130.7 146.5 129.5 147.5L118 129.7V83.8H127.5C142.6 83.8 154.8 72.6 154.8 58.7C154.8 44.8 143.4 33.6 128.3 33.6H107.5V155.6C105.7 155.9 104 156.2 101.2 156.9C91.6 159.1 82.9 165.9 75.9 171.3C72.1 174.3 71 175 70.7 175.2C70.1 175.5 69.5 175.9 69 176.2ZM220.2 102.5L220.6 102.3L221.1 102.1C226 100 231.7 98.9 237.6 98.9C241.9 98.9 246.2 99.6 249.9 100.8V33.6H275.5C286.7 33.6 295.8 43.9 295.8 55.1C295.8 66.3 286.7 75.4 275.5 75.4H262.2V106.5C263.2 107.2 264.3 107.9 265.6 108.8L266 109.1L267 109.9H286.7C300.3 109.9 310.6 120.9 310.6 134.5C310.4 139.2 309.3 143.4 307.4 147C313.1 153.9 320.2 163.1 324.4 169.9L324.6 170.2C326.4 173.3 328.1 177.4 329.2 181.1C343.3 171 352.4 155.2 352.4 137.5C352.4 115.6 344.7 100.1 318.9 88.1C329.4 78.3 335.8 65.2 335.8 50.8C335.8 37.7 330.8 25.7 322 16.3C312.9 6.2 296.7 0.600006 274.8 0.600006H209V109.3C210.1 108.6 211.3 107.9 212.5 107.1C214.9 105.6 217.4 103.9 220.2 102.5ZM198.2 264.4C199.3 266.8 200.3 269 201.4 269.3C201.9 269.4 202.4 269.5 203 269.5C205.5 269.5 209.1 268.1 211.6 266.1C213 264.9 212.6 264.1 211.9 263C211.7 262.7 211.5 262.3 211.2 261.8C210.5 260.5 210.1 259.1 209.8 257.9C209.1 255.4 208.5 253.3 205.9 253.7C202.1 254.2 198.5 254.5 194.4 254.5C194.3 254.5 193.1 254.5 192.7 255.4C192.2 256.4 193.3 257.4 194.4 258.4C195 259 195.7 259.6 196.1 260.2C196.7 261.3 197.5 262.9 198.2 264.4ZM9.20004 272.7C9.10004 272.7 8.90002 272.7 8.80002 272.8C6.60002 273.7 4.10003 276.5 4.00003 278.2C3.50003 285.5 3.20002 286.3 1.30002 288.5C0.700016 289.1 0.400029 290.6 1.00003 291.2C1.60003 291.8 8.70003 294 9.50003 294H9.70004C10.3 293.8 10.9 292.2 12.3 287.1C13.1 284.4 14 281.3 15 278.5C15.1 278.3 15.1 278.1 14.4 277.1C13.6 275.9 10.8 272.7 9.20004 272.7ZM355.2 262.4C355.1 263.1 354.6 263.6 353.8 263.7C352.9 263.9 352 264 351 264C343.7 264 336 258.2 333 252.8C329 245.5 325.7 241.2 319.8 239.1C320.4 240.3 321.1 241.4 321.9 242.5C322.4 243.1 322.8 243.8 323.2 244.4C325.1 247.6 327.8 252.3 329.2 257C330.5 261.4 335.2 264.7 339.5 267.4L344.9 270.3C346 270.8 346.6 271.6 346.5 272.3C346.4 272.9 346.2 273.4 345.2 273.7L344.2 273.8C343.8 273.8 343.5 273.8 343.1 273.8C333.4 273.8 325.6 270.5 319.3 263.7C317.4 261.6 315.5 260.5 313.6 260.5C309.3 264.3 304.9 268.1 299 268.5C291.7 267.3 285.6 267.7 281 269.7C280.2 270 279.5 270.2 278.7 270.5C274.5 272 270.2 273.6 265.4 273.8C262.8 273.8 259.5 272.5 258.6 269.9C258.3 268.8 258.4 267.8 258 266.5C257.4 264.2 256.9 261.8 258.2 259.6L261.8 254.2C261.8 253.7 261.4 253.3 260.9 253.2C260.4 253.1 259.8 253.4 259.2 253.6C258.6 253.8 258.1 254.1 257.6 254.1C256 254 256.1 252.5 256.1 252.5C256.3 248.3 259.7 245 262.9 242.1C263.8 241.3 264.7 240.5 265.5 239.6C266.4 235 268.2 231.2 271.1 227.9C271 227.6 270.8 227.3 270.4 227.1C269.3 227.3 268.2 227.5 267.1 227.7C263.6 228.4 260 229 256.2 229C251.2 231.6 244.3 232.4 242.4 231.1C242.4 231.1 241.6 230.5 241.5 229.8C241.4 229.1 241.6 228.3 241.8 227.9C246.7 221.1 248.6 212.5 247.2 204.3C247.1 203.6 246.8 203.4 246.4 203.4C245.8 203.4 245.6 204.1 245.5 204.5C244 213.1 241.6 219.4 237.7 225.4C236.4 227.4 232.8 228.2 229.3 228.9C227.8 229.2 226.5 229.4 225 230C224.2 230.3 223.1 231.1 223.1 232.3C223 234.8 224.3 237 225.6 239L225.8 239.2C226.1 239.8 234.4 253.4 234.7 256.2C235 258.6 233.9 266 232.9 269.1C232.6 270.2 233.1 270.3 233.2 270.3C233.4 270.3 233.7 270.2 234.1 269.9C235.5 268.9 240.4 261.4 240.8 259.1C241.2 256.8 240.5 255.3 239.8 253.8L230 234.4L230.1 234.2C230.6 233.2 231.9 232.6 233.7 232.5H233.9C235.5 232.5 236.9 233 238.2 233.6C238.8 233.8 239.5 234.1 240.1 234.3H240.3L240.4 234.5C242.6 240.4 243.6 242.7 249 251.4C250.8 254.3 250.8 258 249 261.7C247 265.9 244.6 269.9 241.9 273.8C239.7 276.1 236.7 276.3 233.8 276.5C233.2 276.5 232.5 276.6 231.9 276.7H229.1C220.6 281.2 211.7 284.2 202.5 287.1C201.2 287.5 199.9 287.7 198.5 287.7C195.3 287.7 192.3 286.6 190.2 284.8C187.9 283 186.5 280.5 185.2 278.1C184.7 277.1 184.1 276.1 183.5 275.2C182.8 274.3 181.6 273.9 179.9 273.9C179.3 273.9 178.7 273.9 178.2 274C177.7 274 177.2 274.1 176.7 274.1C175.9 274.1 174.8 274 174.3 273.2L173.4 271.7C171.4 268.3 169.4 265 167.4 261.5C166.9 260.7 166.9 259.7 167.2 259C167.5 258.3 168.1 257.9 168.9 257.7C172.7 256.9 176 256.2 179.5 255.9C183.1 255.6 185.8 256.5 187.9 258.9C189.5 260.7 190.7 262.8 191.9 264.8C194.1 268.5 193.7 269.6 197.2 272.8C197.3 272.9 199.2 274.3 201.4 274.5C204.7 274.7 210.3 272.5 213.8 270.8C216 269.5 219 267.3 219 264.2C218.6 257.4 213.5 252.5 209.3 249.5C202.7 246.1 197.4 241.9 194 237.6C192.4 235.4 191.6 232.7 190.9 230.2C190.7 229.6 190.6 229 190.4 228.4C190.3 228 189.9 227.9 189.6 227.9C189.3 227.9 188.9 228 188.7 228.2C187 229.7 188 232.8 188.7 234.9C188.8 235.2 188.9 235.5 189 235.8L189.1 236.1C189.6 237.7 189.9 238.9 188.9 239.8C187.4 241 185.4 241.6 182.6 241.6C181.4 241.6 180.2 241.5 179 241.4C178.3 241.3 177.7 241.3 177.1 241.3C173.7 241.1 170.4 240.5 167.3 239.8C163.7 239.1 159.9 238.3 156 238.3C155.1 238.3 154.3 238.3 153.5 238.4C151.5 238.5 149.2 238.9 146.8 239.2C143.7 239.7 140.4 240.2 137.5 240.2C132.6 240.2 129.5 238.7 128.1 235.6C125 227.8 126.6 218.5 127.9 211.7C127.9 211 127 210.7 126.6 210.6C126.4 210.5 126.3 210.5 126.2 210.5C125.8 210.5 125.4 210.7 125.2 211.2C124.3 214.5 123.8 218 123.3 221.5C122.7 225.8 122 230.3 120.6 234.5C118.5 240.9 113.2 249 106 252.6C100.4 255.5 94 257 85.1 257.6C73.1 257.8 58.3 259.6 49.6 272C49 273.1 48.9 273.4 48.7 274.3C48.6 274.7 48.6 275.1 48.8 275.3C49.1 275.7 49.7 275.6 50.1 275.2C58.3 266 69.5 261.3 83.4 261.3C84.2 261.3 84.9 261.3 85.7 261.3C96.9 261.3 110.9 259.8 119.5 248.1C121.6 245.7 124.8 240.4 124.8 240.4L125 240.1L129.9 243.8L129.8 244C129.8 244.1 127.7 249.4 126.4 251.8C125.1 254.4 121.5 260.8 117.4 263.1C116.4 263.6 115.2 264.3 113.9 265C111.5 266.2 108.6 267.8 105.7 269.4C103.3 270.8 100.3 271.5 97.2 271.5C95.4 271.5 93.6 271.3 91.8 270.8C88.5 270.2 84.3 269.4 80.4 269.4C77.2 269.4 74.7 269.9 72.5 270.9C70.8 272 69.1 273.5 67.5 275C66.5 276 65.4 276.9 64.4 277.8C62 279.7 57 283 51.8 282.7C50.7 282.6 49.6 282.3 48.6 282.1C47.4 281.8 46.2 281.5 45.1 281.5C43.8 281.5 42.9 281.9 42.1 282.8C40.7 284.1 39.7 285.8 38.8 287.5C37.3 290 35.8 292.6 33 293.9C31.4 294.8 29.6 295.2 27.5 295.2C25.3 295.2 23 294.7 20.9 294.2C19.2 293.8 17.7 293.5 16.1 293.4H15.7L15.8 292.8C15.9 292.1 16.1 291.5 16.2 290.8C17.1 286.4 18.1 281.9 21 278.5L21.1 278.4H21.2C23.1 278.2 25.1 277.8 26.7 276.4C28.7 274.6 30.3 272.3 31.8 269.8L31.9 269.7C32.8 269.1 33.8 268.6 34.7 268C38.5 265.8 42.4 263.5 44.8 259.7C45.6 257.9 46.5 255.8 47.3 253.8C48.6 250.4 49.8 247.5 50.8 246.4C51.4 245.8 52 245.5 52.9 245.4C53.3 245.4 53.9 245.3 54.8 245.3C56.5 245.2 58.9 245.1 61.1 244.8C62.5 244.6 69.9 242 73.6 238.6C74.6 237.6 75.1 235.9 74.6 234.4C74.5 233.9 74.1 233 73.6 231.9C72.5 229.2 70.8 225 70.1 221.6C69.8 220.1 69.6 216.4 69.5 212.6C69.4 210.2 69.3 207.8 69.1 205.6C69 204.5 68.6 204.5 68.4 204.5C68.3 204.5 68.1 204.5 67.9 204.6C63.1 205.8 58.1 207.1 52.8 207.1C51.1 207.1 49.6 207 48 206.7C39.1 205.6 28.4 199.7 24.5 189.3C21.5 181.4 21.8 169.2 28.3 162.1C33.2 156.1 39.1 151.2 44.9 146.4C46 145.5 47.2 144.5 48.3 143.6C49.5 142.6 50 141.9 49.9 140.9C49.7 139.3 48.4 138 47.1 137.6C45.7 137.2 44.1 137.2 42.8 137.2C42.3 137.2 41.9 137.2 41.4 137.2C40.9 137.2 40.5 137.2 40 137.2C37.9 137.2 35.7 137.1 33.5 136.2C33.2 136.1 32.9 136 32.6 135.9C25.9 132.8 19.8 125.3 18.9 118C18.7 114.5 19.3 111.4 21.1 108.6C25.9 111.2 30.1 115.4 35.6 116.9C37.7 117.4 39.8 117.7 42 118.2C42.3 118.3 42.9 118.3 43.3 118.4L43.9 118.5C47.3 119.3 56.5 121.6 60.6 126.1C64.7 130.6 65.1 138.9 61.5 143.8C58.4 148 53.8 151.9 49 155.9C46 158.4 43 161 40.3 163.7C34.6 169.4 32.5 176.7 34.5 183.9C36.6 190.3 43 195.1 50 195.6C50.2 195.6 50.5 195.6 50.7 195.6C60.1 195.6 67.4 191.3 75.1 186.8C75.8 186.4 76.6 185.9 77.2 185.5C78.5 184.7 81.2 182.6 83.3 181C89.5 176.1 96.9 170.4 103.8 168.8C108.4 167.7 109.2 167.7 114 167.2C117.4 166.9 120.6 166.5 123.5 165.5C129.9 163.3 135.5 158.5 141 153.5C148 147.8 154.8 145.4 164.3 145.4C168.4 145.4 169 144.9 174 140.2C175.1 139.2 176.4 138 178 136.5C183.4 131.5 190.3 129.4 197 127.3C200.4 126.2 203.9 125.2 207.2 123.7C211.4 122.3 215.3 119.8 219 117.4C221.2 116 223.5 114.5 225.8 113.3C229.2 111.8 233.3 111 237.5 111C240.8 111 244 111.5 246.7 112.5C250.9 114 252.7 114.8 258.5 118.8L287.8 143.1L288.2 143.5C288.7 144 289.4 144.6 289.9 145.2C290.8 146.1 307.1 165.1 313.9 176.2C316.1 179.9 317.9 185.6 318.1 188.3C319.4 205.4 324.6 220.8 329.4 233.8C329.6 234.3 330.6 235.2 331.7 236.2C333 237.3 334.4 238.6 335.3 239.9C336.6 241.7 337.8 243.7 338.9 245.6C341.8 250.5 344.9 255.6 350.1 258.6C350.1 258.6 352.5 259.8 354.5 260.8C355.2 261.3 355.3 261.8 355.2 262.4ZM248.5 155C247 152 245.5 150.1 244 149.4C243.6 149.2 243.1 149.1 242.6 149.1C241.6 149.1 240.6 149.5 240.3 150.1C239 152.2 240.2 153.7 241.5 155.5C242.1 156.4 242.8 157.3 243.4 158.5C245.2 162.1 246.1 166 247.6 173.8C247.7 174.5 248.2 174.6 248.3 174.6C248.7 174.6 249 174.2 249.2 173.7C249.3 173.6 252.3 162.7 248.5 155ZM297.8 246.9C296.4 246.2 294.9 246.7 294.9 246.7C290.3 247.9 288 252.7 287.7 253.2C287.7 253.2 287 254.5 287.4 255.2C287.8 255.8 288.5 256.1 290.5 256.2C292.5 256.3 296.2 255.8 297.2 254.8C298.2 253.9 298.5 251.6 298.5 251.6C298.5 251.2 299.2 247.6 297.8 246.9ZM311.6 214.8C311.1 212.5 309.1 208.7 307.3 206.8C305.5 204.9 304.9 203.9 304.3 202.9C303.7 201.9 304.2 202.2 302 199.5C300.1 197.2 298.4 197.4 297.9 197.4C297.9 197.4 295.9 197.3 294.4 199.5C293.8 200.3 292.4 203.7 292.4 203.7C291.7 205.4 291.1 205.9 290.5 208.4C289.9 210.8 290.1 211.8 290.4 213.1C290.6 214.4 291.3 214.5 291.8 214.2C292.3 213.9 292.3 213.6 293.9 211.5C295.3 209.7 297.1 208.6 297.8 208.6C300.6 208.3 305.4 214.6 306.4 216.8C307.3 218.8 307.5 223.6 307.5 223.6C307.5 223.8 307.4 225.6 308.9 225.6C310.2 225.6 310.7 224.6 310.9 224.2C311.1 223.8 311.6 222.9 311.9 221.1C312.1 219.1 312.2 217.1 311.6 214.8ZM17.2 272.5C17.8 273 18.6 273.6 19.9 273.6C20.6 273.6 21.4 273.4 22.1 273C26.2 271 30.4 263.4 30.5 263C30.9 261.8 29.5 260.7 27.8 259.3L27.6 259.1C26.8 258.5 25.4 258.6 24.5 259.2C23.8 259.6 23.2 260.1 22.5 260.5C20.4 261.9 18.2 263.3 15.9 265.3C15.1 266 14.6 267.3 14.5 268.3C14.4 269.1 14.6 269.8 14.9 270.2C15.2 270.4 16.8 272.2 17.2 272.5ZM64.9 333.1H67.3V326.6H73.7V324.5H67.3V319.8H73.9V317.6H64.8V333.1H64.9ZM90.4 332.8C91.4 332.4 92.2 331.8 93 331.1C93.7 330.4 94.3 329.5 94.7 328.5C95.1 327.5 95.3 326.5 95.3 325.3C95.3 324.2 95.1 323.1 94.7 322.1C94.3 321.1 93.7 320.3 93 319.6C92.3 318.9 91.4 318.3 90.4 317.9C89.4 317.5 88.3 317.3 87.2 317.3C86 317.3 84.9 317.5 84 317.9C83 318.3 82.2 318.9 81.4 319.6C80.7 320.3 80.1 321.2 79.7 322.1C79.3 323.1 79.1 324.1 79.1 325.3C79.1 326.4 79.3 327.5 79.7 328.5C80.1 329.5 80.7 330.3 81.4 331.1C82.1 331.8 83 332.4 84 332.8C85 333.2 86.1 333.4 87.2 333.4C88.3 333.4 89.4 333.2 90.4 332.8ZM84.9 330.7C84.2 330.4 83.6 330 83.1 329.5C82.6 329 82.2 328.4 81.9 327.7C81.6 327 81.5 326.2 81.5 325.4C81.5 324.6 81.6 323.8 81.9 323.1C82.2 322.4 82.6 321.8 83.1 321.3C83.6 320.8 84.2 320.4 84.9 320.1C85.6 319.8 86.3 319.7 87.2 319.7C88 319.7 88.7 319.8 89.4 320.1C90.1 320.4 90.7 320.8 91.2 321.3C91.7 321.8 92.1 322.4 92.4 323.1C92.7 323.8 92.8 324.6 92.8 325.4C92.8 326.2 92.7 327 92.4 327.7C92.1 328.4 91.7 329 91.2 329.5C90.7 330 90.1 330.4 89.4 330.7C88.7 331 88 331.1 87.2 331.1C86.3 331.2 85.6 331 84.9 330.7ZM101.6 333.1H104V327H106.1L110 333.1H112.8L108.7 326.8C109.7 326.5 110.4 325.9 111 325.1C111.5 324.3 111.8 323.4 111.8 322.3C111.8 320.8 111.3 319.7 110.4 318.9C109.5 318.1 108.2 317.6 106.6 317.6H101.5V333.1H101.6ZM104 325V319.7H106.6C107.5 319.7 108.1 319.9 108.6 320.4C109.1 320.9 109.3 321.5 109.3 322.3C109.3 323.1 109.1 323.8 108.6 324.3C108.1 324.8 107.4 325 106.6 325H104ZM131 317.6L126.5 330L122 317.6H118.7V333.1H121V321.2L125.4 333.1H127.5L131.9 321.2V333.1H134.3V317.6H131ZM150 333C150.7 332.7 151.4 332.3 151.9 331.7C152.4 331.2 152.8 330.5 153.1 329.7C153.4 328.9 153.5 328 153.5 327.1V317.6H151V327.1C151 328.4 150.7 329.4 150.1 330.1C149.5 330.8 148.6 331.2 147.5 331.2C146.4 331.2 145.5 330.8 144.9 330.1C144.3 329.4 144 328.4 144 327.1V317.6H141.6V327.1C141.6 328.1 141.7 328.9 142 329.7C142.3 330.5 142.7 331.2 143.2 331.7C143.7 332.2 144.4 332.7 145.1 333C145.8 333.3 146.7 333.5 147.6 333.5C148.4 333.4 149.2 333.3 150 333ZM160.6 333.1H169.1V330.9H163V317.6H160.6V333.1ZM184.9 333.1H187.5L181.7 317.6H179.1L173.2 333.1H175.8L177.1 329.4H183.6L184.9 333.1ZM180.4 320.1L183 327.5H177.8L180.4 320.1ZM213.3 332.8C214.3 332.4 215.1 331.8 215.9 331.1C216.6 330.4 217.2 329.5 217.6 328.5C218 327.5 218.2 326.5 218.2 325.3C218.2 324.2 218 323.1 217.6 322.1C217.2 321.1 216.6 320.3 215.9 319.6C215.2 318.9 214.3 318.3 213.3 317.9C212.3 317.5 211.2 317.3 210.1 317.3C208.9 317.3 207.8 317.5 206.9 317.9C205.9 318.3 205.1 318.9 204.3 319.6C203.6 320.3 203 321.2 202.6 322.1C202.2 323.1 202 324.1 202 325.3C202 326.4 202.2 327.5 202.6 328.5C203 329.5 203.6 330.3 204.3 331.1C205 331.8 205.9 332.4 206.9 332.8C207.9 333.2 209 333.4 210.1 333.4C211.2 333.4 212.3 333.2 213.3 332.8ZM207.8 330.7C207.1 330.4 206.5 330 206 329.5C205.5 329 205.1 328.4 204.8 327.7C204.5 327 204.4 326.2 204.4 325.4C204.4 324.6 204.5 323.8 204.8 323.1C205.1 322.4 205.5 321.8 206 321.3C206.5 320.8 207.1 320.4 207.8 320.1C208.5 319.8 209.2 319.7 210.1 319.7C210.9 319.7 211.6 319.8 212.3 320.1C213 320.4 213.6 320.8 214.1 321.3C214.6 321.8 215 322.4 215.3 323.1C215.6 323.8 215.7 324.6 215.7 325.4C215.7 326.2 215.6 327 215.3 327.7C215 328.4 214.6 329 214.1 329.5C213.6 330 213 330.4 212.3 330.7C211.6 331 210.9 331.1 210.1 331.1C209.3 331.2 208.5 331 207.8 330.7ZM234 317.6V329.1L227.1 317.6H224.4V333.1H226.8V321.4L233.8 333.1H236.4V317.6H234ZM243.7 333.1H253.1V331H246.1V326.1H252.6V324H246.1V319.7H252.8V317.6H243.7V333.1ZM272 333.1H274.4V319.8H279V317.6H267.6V319.8H272V333.1ZM285.1 333.1H294.5V331H287.5V326.1H294V324H287.5V319.7H294.2V317.6H285.1V333.1ZM311.1 333.1H313.7L307.9 317.6H305.3L299.4 333.1H302L303.3 329.4H309.8L311.1 333.1ZM306.5 320.1L309.1 327.5H304L306.5 320.1ZM331.8 317.6L327.3 330L322.8 317.6H319.5V333.1H321.8V321.2L326.2 333.1H328.3L332.7 321.2V333.1H335.1V317.6H331.8Z" fill="#8B8F91"/>
</svg>
