<svg width="790" height="301" viewBox="0 0 790 301" fill="none" xmlns="http://www.w3.org/2000/svg">
<g clip-path="url(#clip0_45_54)">
<path d="M368.559 298.317C369.391 298.476 370.224 298.623 371.053 298.771L368.559 298.317ZM375.363 299.45C376.331 299.595 377.3 299.723 378.272 299.851L375.363 299.45ZM382.556 300.313C383.503 300.4 384.443 300.48 385.39 300.553L382.556 300.313ZM386.403 300.622C387.202 300.681 388.001 300.728 388.8 300.77L386.403 300.622ZM389.964 300.831C390.91 300.873 391.857 300.909 392.803 300.94L389.964 300.831ZM393.744 300.951C395.859 301.007 397.974 301.009 400.088 300.956L393.744 300.951ZM401.099 300.94C402.085 300.91 403.07 300.872 404.055 300.825L401.099 300.94ZM404.985 300.781C405.84 300.734 406.68 300.681 407.53 300.622L404.985 300.781ZM408.412 300.561C409.336 300.491 410.263 300.413 411.182 300.327L408.412 300.561ZM415.923 299.798C416.635 299.715 417.342 299.623 418.047 299.512L415.923 299.798ZM545.806 60.8983C545.04 60.4854 544.254 60.11 543.451 59.7737L545.806 60.8983ZM538.09 58.1229C537.105 57.9212 536.111 57.7689 535.111 57.6664L538.09 58.1229ZM32.8499 160.55C29.4236 157.406 26.82 153.47 25.2668 149.086C24.003 145.426 22.3661 140.852 22.3661 136.968C22.4469 119.458 32.6662 106.452 43.6677 100.431C48.6674 97.6974 50.5242 95.8211 51.287 94.8579C50.9209 94.6961 50.5305 94.5964 50.1317 94.5628C35.1577 94.5628 27.48 88.7447 23.7107 83.8201C20.1391 79.2074 18.3157 73.2612 18.3157 66.7582C18.3157 63.5986 18.7611 60.2915 19.638 56.9092C23.8583 49.9385 27.8669 51.8538 30.3222 55.4198C31.8867 57.6524 42.6071 65.2522 55.8162 66.4576C65.4287 67.3707 70.6093 72.0725 73.3041 75.8279C76.4108 80.1761 77.6022 85.4153 77.6022 89.8721C77.6022 91.6955 77.3962 93.4075 77.0037 94.9303C75.5561 100.804 69.3678 106.099 60.7491 112.844L55.8608 116.897C48.7036 123.161 44.7646 130.131 44.7646 136.039C44.7646 137.514 45.0235 138.953 45.5218 140.281C45.7278 140.827 45.9755 141.353 46.2678 141.851C49.4664 147.266 58.5054 150.662 71.6171 146.074C77.6774 143.972 89.3443 136.629 96.468 129.566C104.85 121.204 116.038 119.197 126.811 118.345C136.154 117.64 141.905 115.349 145.956 110.795C157.926 97.3076 169.445 95.4119 180.227 94.6101C184.353 94.2928 184.575 93.9977 185.112 93.2711C191.056 85.3568 197.161 81.1672 202.639 78.7286C206.815 76.8718 210.629 76.0255 213.752 75.3407L217.544 74.4081L218.49 74.0741C224.492 72.1421 229.138 70.5414 241.348 62.2902L241.869 61.9618L241.871 61.9562L242.384 61.6361L242.389 61.6333L242.904 61.3298L242.912 61.3271L243.427 61.032L243.436 61.0292L243.954 60.7564L243.97 60.7508L244.483 60.4836L244.499 60.478L245.014 60.2275L245.036 60.2219L245.554 59.9825L245.574 59.9713L246.094 59.7542L246.117 59.7459L246.634 59.5315L246.662 59.5259L247.183 59.3311L247.208 59.3172L247.723 59.1334L248.271 58.9497L248.307 58.9413L248.82 58.7771L248.853 58.7687L249.374 58.6184L249.41 58.6101L249.925 58.4681L249.964 58.457L250.482 58.3345L250.529 58.3233L251.038 58.2064L251.08 58.1953L251.601 58.0895L251.645 58.0784L252.16 57.9837L252.208 57.9754L252.723 57.8891L252.77 57.8835L253.279 57.8083L253.332 57.7972L253.844 57.7387L253.897 57.7276L254.401 57.6719L254.457 57.6691L254.966 57.6218L255.025 57.6163L255.531 57.5801L255.59 57.5745L256.088 57.5439L256.147 57.5411L256.65 57.5188L257.213 57.5021H257.271L257.772 57.4965H258.396L258.891 57.5021L258.95 57.5049H259.008C259.365 57.5133 259.721 57.5355 260.077 57.555L260.567 57.5856L260.637 57.5912L261.118 57.6274L261.191 57.633L261.672 57.6803L261.748 57.6886L262.226 57.736L262.304 57.7415L262.78 57.8L262.856 57.8111L263.329 57.8696L263.41 57.8835L263.877 57.9531L263.955 57.967L264.426 58.0394L264.509 58.0561L264.968 58.1368L265.055 58.1507L265.511 58.2343L265.595 58.2537C266.324 58.3901 267.042 58.5516 267.747 58.7242L268.189 58.8356L268.278 58.8606C268.988 59.0443 269.69 59.2392 270.38 59.4452L270.789 59.5733L270.89 59.6039C272.259 60.0354 273.587 60.5225 274.873 61.0375L275.235 61.1879L275.708 61.3827C301.82 25.9088 343.104 2.30498 390.025 0.169812V0.158676C392.335 0.0548191 394.647 0.00191406 396.959 0C398.488 0.00100595 400.016 0.0242067 401.544 0.0695949C402.304 0.0946491 403.064 0.125271 403.821 0.155893H403.83C404.581 0.192082 405.341 0.228271 406.096 0.275596C451.5 3.00372 491.486 25.8698 517.239 60.0576C520.916 58.7799 524.922 57.8529 529.012 57.5745L529.12 57.5689L529.507 57.5439L529.911 57.5244L530.008 57.5188L530.114 57.516L530.509 57.5049L530.615 57.4993L531.01 57.4965L531.116 57.4938L531.52 57.491H531.617L532.021 57.4938H532.121L532.619 57.5021L533.026 57.5188L533.115 57.5216L533.521 57.5411L533.616 57.5467L534.025 57.5745L534.103 57.5801L534.518 57.6135L534.599 57.619L535.016 57.6608L535.091 57.6691C536.091 57.7714 537.085 57.9238 538.07 58.1257L538.507 58.2148L538.566 58.2287L538.997 58.3317L539.058 58.3428L539.493 58.4542L539.551 58.4681L539.991 58.585L540.038 58.5989L540.489 58.7242L540.531 58.7381L540.971 58.8745L541.021 58.8884L541.469 59.036L541.508 59.0471L541.992 59.2169L542.446 59.3784L542.474 59.3923L542.925 59.5677L542.953 59.5788L543.412 59.7626L543.44 59.7765C544.233 60.1105 545.018 60.4808 545.795 60.9011L545.809 60.9095L546.268 61.1545L546.274 61.16L546.733 61.4245L546.742 61.4273L547.201 61.7057L547.207 61.7084L547.66 61.9952L548.12 62.293C556.532 68.011 561.393 70.5303 565.541 72.1755C567.406 72.9188 569.137 73.4783 570.975 74.0768L571.941 74.4109L575.771 75.3435C577.848 75.8 580.22 76.3262 582.789 77.1669C589.217 79.2603 596.897 83.3246 604.35 93.2739C604.89 94.0005 605.129 94.2956 609.274 94.6129C620.045 95.4174 631.544 97.3104 643.565 110.798C647.585 115.352 653.308 117.64 662.648 118.348C673.485 119.199 684.637 121.204 693.002 129.569C700.134 136.632 711.787 143.975 717.864 146.077C730.971 150.665 740.054 147.268 743.177 141.854C743.862 140.713 744.322 139.457 744.555 138.129C744.678 137.44 744.74 136.741 744.742 136.041C744.742 130.134 740.797 123.164 733.66 116.9L732.772 116.162L728.724 112.847C720.139 106.102 713.948 100.807 712.456 94.9331C712.063 93.4103 711.893 91.6983 711.893 89.8749C711.893 85.4153 713.112 80.1789 716.158 75.8306C718.872 72.0753 724.108 67.3735 733.66 66.4604C746.938 65.255 757.6 57.6552 759.159 55.4226C761.656 51.8566 765.626 49.9413 769.83 56.912C770.72 60.2943 771.166 63.6014 771.166 66.761C771.166 73.3002 769.342 79.2102 765.774 83.8229C761.979 88.7475 754.327 94.5656 739.327 94.5656C739.01 94.5656 738.567 94.7131 738.197 94.8607C738.941 95.8267 740.797 97.7029 745.808 100.434C756.81 106.458 767.04 119.464 767.132 136.971C767.132 140.855 765.515 145.426 764.209 149.089C762.845 152.931 760.682 156.441 757.862 159.386C757.481 159.782 757.083 160.171 756.662 160.553C750.465 166.31 740.143 170.828 722.945 169.8C721.134 169.69 719.326 169.526 717.525 169.311C717.079 177.988 714.699 188.302 711.35 193.505C710.331 195.139 710.131 196.235 710.131 196.773C710.131 196.998 710.153 197.129 710.153 197.224C710.259 197.26 717.784 201.7 717.784 201.7L718.997 202.315C718.997 202.315 719.705 202.649 719.796 202.724C719.905 202.685 722.396 202.574 722.396 202.574L722.889 202.505L722.939 202.499C727.644 202.051 734.829 199.749 737.883 208.278C738.682 210.541 739.169 212.512 739.628 214.258C740.561 217.827 741.36 220.477 744.483 222.885C744.483 222.885 746.028 221.56 747.782 220.001C749.137 218.804 750.465 217.578 751.766 216.323C753.942 214.093 757.971 215.227 760.874 216.323C763.811 217.437 767.447 219.967 770.016 221.432C772.602 222.882 774.028 224.722 774.771 226.918C775.547 229.109 777.343 230.56 780.082 232.01C782.727 233.513 786.518 238.329 786.518 244.829C786.518 245.826 786.63 246.678 786.911 247.583C787.103 248.181 787.365 248.805 787.724 249.515C791.421 256.967 788.453 260.719 786.312 262.301C783.434 264.455 778.356 265.346 773.585 264.567L773.624 265.791L766.656 264.862C763.956 264.525 760.395 265.215 758.268 265.658L757.767 265.791C752.807 266.777 746.32 265.098 742.676 259.18C742.543 258.96 742.409 258.74 742.284 258.506C740.424 255.241 737.529 252.209 736.112 251.371C734.066 251.934 730.834 252.696 726.987 252.304C723.418 251.945 719.301 250.575 715.114 247.107C714.421 246.53 713.722 245.893 713.029 245.202C706.877 239.031 698.759 237.767 693.656 238.549L690.614 239.089C684.334 240.225 676.489 241.673 669.243 237.252C667.439 236.152 664.839 235.019 662.289 233.942C655.711 231.077 648.91 228.124 647.983 221.896C647.827 220.786 646.624 218.756 645.636 217.142C644.767 215.714 643.821 214.152 643.089 212.479C642.385 210.881 641.878 209.18 641.831 207.404C639.677 207.958 637.452 208.185 635.23 208.078C634.446 208.038 633.663 207.961 632.886 207.847L630.03 207.404C625.217 206.583 615.137 204.926 611.927 206.098C605.535 208.403 585.422 209.517 579.908 208.256C579.908 208.256 577.878 207.81 575.966 207.404C574.129 209.3 572.08 211.079 569.925 212.663C573.962 212.883 577.511 212.381 579.95 213.011L585.016 214.347C586.633 213.868 590.589 213.924 592.836 214.127L598.771 214.572L605.541 215.224C608.804 215.878 612.267 217.287 611.674 223.678C611.445 225.649 610.343 228.436 608.684 230.073C607.771 231.075 604.233 236.205 603.456 237.82L603.203 238.324C601.825 241.261 599.781 243.958 593.832 243.958C593.077 243.948 592.321 243.978 591.569 244.047C591.388 244.529 590.901 245.422 590.901 245.422C589.562 248.468 587.627 252.708 583.93 255.16L582.942 255.87C579.975 257.988 575.031 261.479 567.461 258.732L564.856 257.799C558.258 255.422 548.281 251.856 543.245 249.103L542.538 248.713C537.847 246.146 536.809 245.631 535.105 245.871L534.159 246.018C530.562 246.522 523.781 247.432 519.093 239.66L518.664 238.986C496.436 269.497 463.024 291.336 424.463 298.465L424.294 298.501C422.98 298.74 421.654 298.963 420.329 299.172L419.837 299.244L418.024 299.512C417.32 299.617 416.613 299.712 415.9 299.801L414.609 299.963L412.571 300.182L411.16 300.33C410.241 300.416 409.314 300.494 408.39 300.564L407.513 300.622C406.664 300.681 405.823 300.736 404.968 300.781L404.039 300.831C403.053 300.878 402.073 300.915 401.082 300.945L400.077 300.962C397.963 301.014 395.847 301.013 393.733 300.956L392.787 300.945C391.84 300.915 390.893 300.878 389.947 300.837L388.789 300.773C387.99 300.728 387.191 300.686 386.392 300.625L385.376 300.558C384.431 300.485 383.486 300.406 382.542 300.319L381.145 300.174L379.293 299.974L378.261 299.854C377.289 299.735 376.319 299.6 375.352 299.45L374.18 299.278L372.108 298.955L371.042 298.777C370.21 298.629 369.378 298.484 368.548 298.323L366.752 297.964L365.834 297.777C364.606 297.51 363.37 297.246 362.151 296.95L361.828 296.875L359.91 296.408L358.924 296.154C357.78 295.859 356.642 295.542 355.506 295.224L355.099 295.105C321.287 285.35 292.394 264.057 272.916 235.774L270.352 239.677C265.709 247.449 258.942 246.536 255.298 246.035L254.351 245.887C252.653 245.648 251.578 246.163 246.932 248.729L246.186 249.119C241.167 251.872 231.229 255.438 224.595 257.816L221.984 258.748C214.42 261.496 209.46 258 206.548 255.887L205.526 255.177C201.826 252.727 199.911 248.487 198.553 245.439C198.553 245.439 198.107 244.545 197.89 244.064C197.136 243.994 196.379 243.965 195.621 243.975C189.728 243.975 187.626 241.277 186.271 238.34L186.031 237.836C185.232 236.222 181.739 231.091 180.773 230.089C179.138 228.455 177.978 225.666 177.794 223.695C177.181 217.303 180.692 215.895 183.924 215.24L190.697 214.589L196.643 214.144C198.853 213.94 202.812 213.885 204.426 214.364L209.499 213.027C211.912 212.398 215.498 212.899 219.498 212.679C217.371 211.068 215.359 209.311 213.477 207.421C211.542 207.827 209.532 208.273 209.532 208.273C204.001 209.534 183.924 208.42 177.571 206.115C174.342 204.943 164.27 206.597 159.435 207.421L156.534 207.863C153.574 208.318 150.553 208.167 147.654 207.421C147.501 211.059 145.53 214.364 143.84 217.158C142.857 218.773 141.613 220.802 141.463 221.913C140.594 228.141 133.71 231.094 127.151 233.959C124.604 235.036 122.043 236.169 120.225 237.269C113.032 241.689 105.151 240.242 98.8509 239.106L95.7999 238.566C90.725 237.784 82.6019 239.047 76.4358 245.219C67.0071 254.626 57.6257 252.557 53.3526 251.388C51.9384 252.226 49.0238 255.257 47.1781 258.523C43.6149 264.992 36.8085 266.83 31.6807 265.808L31.1657 265.674C29.0612 265.232 25.5452 264.541 22.8533 264.878L15.8437 265.808L15.9189 264.583C11.1224 265.363 6.02802 264.469 3.13844 262.317C1.01441 260.736 -1.96147 256.983 1.79666 249.531C2.66799 247.744 2.96585 246.502 2.96585 244.846C2.96585 238.343 6.72676 233.53 9.3658 232.027C12.1329 230.576 13.9535 229.126 14.694 226.935C15.4206 224.739 16.8459 222.899 19.4348 221.448C21.9959 219.984 25.6399 217.454 28.5601 216.34C31.4747 215.243 35.5029 214.11 37.6993 216.34C39.9124 218.495 44.9817 222.899 44.9817 222.899C49.6334 219.308 49.188 215.168 51.5988 208.289C54.6136 199.76 61.8265 202.062 66.5088 202.51L67.0461 202.585C67.0461 202.585 69.571 202.697 69.6461 202.736C69.777 202.66 70.4841 202.326 70.4841 202.326L71.656 201.711C71.656 201.711 79.2168 197.271 79.292 197.235C79.3254 197.143 79.3254 197.009 79.3254 196.784C79.3254 196.247 79.1417 195.15 78.12 193.516C74.7572 188.31 72.3798 177.999 71.9483 169.322C70.7346 169.466 69.5626 169.586 68.4101 169.678C50.0983 171.148 39.2165 166.516 32.8499 160.55Z" fill="#F8EE3F"/>
<path d="M77.9308 162.983C77.9308 162.983 76.4052 177.751 83.0585 190.765C83.0585 190.765 87.9886 197.753 82.8692 202.24L72.6777 208.164C72.6777 208.164 71.3081 209.183 66.7622 208.838C66.7622 208.838 60.4791 207.282 58.3802 210.057C58.3802 210.057 56.5568 215.394 54.2741 219.792C54.2741 219.792 49.6335 230.454 41.953 233.87C41.953 233.87 35.8314 235.273 33.9746 240.581C33.9746 240.581 32.0009 244.306 28.0479 244.47C28.0479 244.47 25.0999 245.406 23.1484 251.973C23.1484 251.973 22.085 256.221 22.1407 259.478C22.1407 259.478 27.1682 258.818 30.4448 260.004C30.4448 260.004 38.5011 262.71 42.1033 256.073C42.1033 256.073 49.0628 244.156 54.224 245.948C54.224 245.948 64.5908 249.417 71.9122 241.851C71.9122 241.851 81.9701 230.863 96.1758 233.124C96.1758 233.124 112.177 236.364 117.168 232.673C117.168 232.673 127.26 227.397 131.046 226.089C131.046 226.089 135.678 224.728 136.157 219.656C136.157 219.656 138.974 212.521 141.023 210.143L133.39 210.057C133.39 210.057 126.477 221.682 114.733 225.187C114.733 225.187 108.31 227.754 95.4186 225.669C95.4186 225.669 76.9091 221.476 60.6517 239.034C60.6517 239.034 58.4303 242.243 55.2595 240.96C55.2595 240.96 64.2428 225.641 83.966 222.011C83.966 222.011 90.4217 220.638 95.8055 221.512C95.8055 221.512 122.371 222.292 134.69 196.138C134.69 196.138 133.356 173.84 139.238 168.559C139.238 168.559 141.51 167.863 141.056 172.175C141.056 172.175 137.014 195.534 144.605 200.058C144.605 200.058 149.012 203.521 157.166 202.24C157.166 202.24 169.526 199.286 179.573 201.007C179.573 201.007 195.023 204.673 208.299 202.978C208.299 202.978 204.852 197.7 205.529 191.389C205.529 191.389 207.43 186.871 209.61 189.777C209.61 189.777 214.718 206.652 228.679 211.716C228.679 211.716 241.148 216.256 240.944 232.071C240.944 232.071 239.035 234.24 222.502 240.114C222.502 240.114 216.324 242.065 214.334 237.45C214.334 237.45 206.361 220.385 199.421 220.911L186.39 221.969C186.39 221.969 181.945 223.107 185.218 226.671C185.218 226.671 189.681 232.603 191.504 236.144C191.504 236.144 192.036 239.17 196.228 238.527C196.228 238.527 202.044 235.646 205.323 246.463C205.323 246.463 208.324 251.872 213.404 253.601C213.404 253.601 218.156 255.188 222.616 252.685C222.616 252.685 244.137 244.785 247.884 241.984C247.884 241.984 252.539 239.379 256.23 240.631C256.23 240.631 262.686 242.171 265.344 237.077L272.014 226.757C272.014 226.757 273.479 224.215 273.275 221.022C273.275 221.022 273.879 217.86 271.213 214.645C271.213 214.645 268.693 211.981 268.295 210.051L263.54 198.877C263.54 198.877 261.614 195.893 259.498 194.665L253.151 195.13C253.151 195.13 257.519 206.293 260.718 210.842C260.718 210.842 265.046 217.462 264.827 221.671C264.827 221.671 264.54 224.622 263.376 225.852C263.376 225.852 261.912 228.196 261.322 229.335C261.322 229.335 259.398 233.51 257.836 234.437C257.836 234.437 255.136 236.035 254.479 236.099C254.479 236.099 253.304 236.425 254.176 234.321C254.176 234.321 257.733 226.835 257.5 222.832C257.5 222.832 258.19 218.662 255.239 216.22C255.239 216.22 248.324 205.305 247.333 202.042C247.333 202.042 245.165 197.677 244.009 196.929C244.009 196.929 241.593 193.752 245.493 192.266C245.493 192.266 255.209 190.072 256.948 188.881C256.948 188.881 261.62 187.466 264.654 177.737C264.654 177.737 268.832 166.39 268.771 159.386C268.771 159.386 276.961 175.176 263.9 191.233C263.9 191.233 274.236 194.281 278.512 191.233C278.512 191.233 291.387 189.351 293.873 188.666C293.873 188.666 297.11 187.884 295.262 190.181C295.262 190.181 291.378 195.704 291.05 199.323C291.05 199.323 290.799 202.204 288.439 203.891C288.439 203.891 281.12 209.016 280.477 213.924C280.477 213.924 278.913 218.648 282.145 217.518C282.145 217.518 286.526 215.488 288.074 217.531C288.074 217.531 288.528 217.746 286.838 219.642C286.838 219.642 282.442 223.467 282.114 228.6C282.114 228.6 282.927 234.524 284.48 236.428C284.48 236.428 286.459 239.173 289.588 238.301C289.588 238.301 290.418 237.631 291.916 238.081C291.916 238.081 293.463 238.076 297.506 236.678C297.506 236.678 303.633 234.994 305.682 234.27C305.682 234.27 313.482 231.481 317.329 231.676C317.329 231.676 319.832 231.4 323.022 232.038C323.022 232.038 332.776 233.146 339.276 225.961C339.276 225.961 344.223 222.038 345.902 225.847C345.902 225.847 357.769 241.77 376.977 237.575C376.977 237.575 361.694 231.289 357.73 222.729C357.73 222.729 357.201 215.46 349.195 205.366C349.195 205.366 346.748 202.017 349.109 201.146C349.109 201.146 350.476 200.124 353.457 203.117C353.457 203.117 361.062 210.413 363.81 217.092C363.81 217.092 373.255 231.364 386.868 226.568C386.868 226.568 376.181 222.445 371.159 214.756C371.159 214.756 368.055 204.35 357.622 196.608C357.622 196.608 357.212 184.914 352.346 178.341C352.346 178.341 349.866 167.359 349.198 164.792C349.198 164.792 346.573 155.147 346.589 152.482C346.589 152.482 347.458 139.883 339.335 130.076C339.335 130.076 333.893 119.584 325.416 112.273C325.416 112.273 318.974 104.314 314.183 99.44C314.183 99.44 307.881 92.0518 294.14 82.4115C294.14 82.4115 287.918 77.8879 283.361 73.0246C283.361 73.0246 259.123 55.5785 241.612 69.5727C241.612 69.5727 229.52 77.7988 219.42 80.3459C219.42 80.3459 198.664 82.7623 189.814 97.1684C189.814 97.1684 189.057 99.8297 180.692 100.843C180.692 100.843 162.316 98.6244 148.787 116.697C148.787 116.697 142.501 122.832 130.057 124.324C130.057 124.324 109.763 122.248 96.5516 137.806C96.5516 137.806 63.2128 166.889 43.3337 148.028C43.3337 148.028 33.0337 138.277 44.8091 120.619C44.8091 120.619 52.2781 111.605 65.0195 102.188C65.0195 102.188 75.3558 94.9052 70.6177 83.5835C70.6177 83.5835 68.1151 72.6432 52.6233 72.3537C52.6233 72.3537 33.184 68.5983 25.3226 58.7827C25.3226 58.7827 16.5453 89.6967 50.9947 89.1817C50.9947 89.1817 59.9725 90.5096 56.8379 97.6361C56.8379 97.6361 52.4368 103.733 46.5295 105.951C46.5295 105.951 36.1376 110.497 31.4414 125.63C31.4414 125.63 20.9464 152.121 46.5518 162.345C56.4064 165.75 67.7894 164.748 77.9308 162.983ZM28.6325 225.407C30.0216 224.246 32.0566 223.592 33.8633 224.015C37.9387 224.892 35.4723 228.422 35.4723 228.422C33.8215 231.509 28.4349 236.717 28.4349 236.717C23.6439 240.306 19.8496 236.033 19.8496 236.033C16.3003 232.533 20.9186 230.841 20.9186 230.841C23.605 229.75 28.6325 225.407 28.6325 225.407ZM18.3603 241.965C18.3603 241.965 19.8496 243.064 19.0535 245.236C19.0535 245.236 15.2508 255.644 15.429 259.138C15.429 259.138 7.01353 260.641 5.84712 256.488C5.84712 256.488 5.62164 254.884 6.99405 252.56C6.99405 252.56 8.42214 250.391 8.79238 246.425C8.79238 246.425 8.66711 236.442 15.1339 239.086C16.4172 239.805 17.4305 240.849 18.3603 241.965ZM314.974 220.841C313.493 220.805 313.117 220.262 313.295 218.631C314.289 214.096 317.925 212.139 317.925 212.139C324.745 208.064 325.575 212.145 325.575 212.145C326.824 219.424 321.07 220.34 321.07 220.34C319.921 220.736 314.974 220.841 314.974 220.841ZM335.549 188.332C335.674 184.917 335.964 177.325 332.492 174.614C331.212 173.595 326.145 168.047 326.145 168.047C325.374 166.702 324.781 166.619 324.781 166.619C323.737 166.518 322.39 168.946 322.39 168.946C318.782 175.908 315.183 175.059 315.183 175.059C315.152 173.79 316.001 172.373 316.001 172.373C317.743 168.99 319.468 165.6 321.176 162.201C321.702 160.993 322.187 159.384 322.187 159.384C325.669 153.986 328.951 158.095 328.951 158.095C330.416 160.954 338.224 170.268 338.224 170.268C339.956 172.328 340.123 174.541 340.123 174.541C341.932 187.299 335.549 188.332 335.549 188.332ZM263.63 111.316C262.563 109.398 263.003 107.441 264.075 105.576C266.491 101.873 268.749 105.912 268.749 105.912C277.092 117.543 270.931 134.956 270.931 134.956C270.074 118.929 263.63 111.316 263.63 111.316ZM711.579 162.983C711.579 162.983 713.104 177.751 706.451 190.765C706.451 190.765 701.521 197.753 706.64 202.24L716.834 208.164C716.834 208.164 718.201 209.183 722.75 208.838C722.75 208.838 729.03 207.282 731.126 210.057C731.126 210.057 732.953 215.394 735.232 219.792C735.232 219.792 739.881 230.454 747.562 233.87C747.562 233.87 753.681 235.273 755.532 240.581C755.532 240.581 757.511 244.306 761.459 244.47C761.459 244.47 764.412 245.406 766.361 251.973C766.361 251.973 767.427 256.221 767.374 259.478C767.374 259.478 762.344 258.818 759.065 260.004C759.065 260.004 751.011 262.71 747.409 256.073C747.409 256.073 740.449 244.156 735.288 245.948C735.288 245.948 724.924 249.417 717.6 241.851C717.6 241.851 707.545 230.863 693.336 233.124C693.336 233.124 677.341 236.364 672.347 232.673C672.347 232.673 662.255 227.397 658.469 226.089C658.469 226.089 653.834 224.728 653.361 219.656C653.361 219.656 650.541 212.521 648.492 210.143L656.123 210.057C656.123 210.057 663.032 221.682 674.777 225.187C674.777 225.187 681.205 227.754 694.091 225.669C694.091 225.669 712.603 221.476 728.86 239.034C728.86 239.034 731.085 242.243 734.25 240.96C734.25 240.96 725.272 225.641 705.546 222.011C705.546 222.011 699.093 220.638 693.704 221.512C693.704 221.512 667.138 222.292 654.814 196.138C654.814 196.138 656.153 173.84 650.271 168.559C650.271 168.559 648.005 167.863 648.451 172.175C648.451 172.175 652.49 195.534 644.904 200.058C644.904 200.058 640.494 203.521 632.341 202.24C632.341 202.24 619.983 199.286 609.939 201.007C609.939 201.007 594.484 204.673 581.208 202.978C581.208 202.978 584.657 197.7 583.981 191.389C583.981 191.389 582.076 186.871 579.897 189.777C579.897 189.777 574.788 206.652 560.825 211.716C560.825 211.716 548.356 216.256 548.559 232.071C548.559 232.071 550.475 234.24 567.011 240.114C567.011 240.114 573.191 242.065 575.181 237.45C575.181 237.45 583.145 220.385 590.088 220.911L603.125 221.969C603.125 221.969 607.568 223.107 604.291 226.671C604.291 226.671 599.834 232.603 598.005 236.144C598.005 236.144 597.479 239.17 593.284 238.527C593.284 238.527 587.469 235.646 584.184 246.463C584.184 246.463 581.188 251.872 576.108 253.601C576.108 253.601 571.353 255.188 566.896 252.685C566.896 252.685 545.375 244.785 541.631 241.984C541.631 241.984 536.973 239.379 533.285 240.631C533.285 240.631 526.835 242.171 524.176 237.077L517.506 226.757C517.506 226.757 516.036 224.215 516.242 221.022C516.242 221.022 515.636 217.86 518.305 214.645C518.305 214.645 520.827 211.981 521.223 210.051L525.98 198.877C525.98 198.877 527.906 195.893 530.019 194.665L536.372 195.13C536.372 195.13 531.999 206.293 528.797 210.842C528.797 210.842 524.469 217.462 524.688 221.671C524.688 221.671 524.978 224.622 526.139 225.852C526.139 225.852 527.603 228.196 528.196 229.335C528.196 229.335 530.111 233.51 531.679 234.437C531.679 234.437 534.376 236.035 535.036 236.099C535.036 236.099 536.213 236.425 535.331 234.321C535.331 234.321 531.784 226.835 532.01 222.832C532.01 222.832 531.325 218.662 534.27 216.22C534.27 216.22 541.191 205.305 542.187 202.042C542.187 202.042 544.348 197.677 545.506 196.929C545.506 196.929 547.922 193.752 544.022 192.266C544.022 192.266 534.309 190.072 532.569 188.881C532.569 188.881 527.898 187.466 524.861 177.737C524.861 177.737 520.685 166.39 520.744 159.386C520.744 159.386 512.554 175.176 525.618 191.233C525.618 191.233 515.282 194.281 511.006 191.233C511.006 191.233 498.134 189.351 495.64 188.666C495.64 188.666 492.41 187.884 494.253 190.181C494.253 190.181 498.134 195.704 498.468 199.323C498.468 199.323 498.713 202.204 501.079 203.891C501.079 203.891 508.398 209.016 509.035 213.924C509.035 213.924 510.602 218.648 507.368 217.518C507.368 217.518 502.989 215.488 501.441 217.531C501.441 217.531 500.987 217.746 502.677 219.642C502.677 219.642 507.073 223.467 507.398 228.6C507.398 228.6 506.585 234.524 505.029 236.428C505.029 236.428 503.053 239.173 499.924 238.301C499.924 238.301 499.097 237.631 497.591 238.081C497.591 238.081 496.046 238.076 492.004 236.678C492.004 236.678 485.877 234.994 483.828 234.27C483.828 234.27 476.028 231.481 472.178 231.676C472.178 231.676 469.675 231.4 466.485 232.038C466.485 232.038 456.728 233.146 450.227 225.961C450.227 225.961 445.281 222.038 443.608 225.847C443.608 225.847 431.737 241.77 412.526 237.575C412.526 237.575 427.818 231.289 431.779 222.729C431.779 222.729 432.303 215.46 440.309 205.366C440.309 205.366 442.753 202.017 440.392 201.146C440.392 201.146 439.028 200.124 436.044 203.117C436.044 203.117 428.447 210.413 425.697 217.092C425.697 217.092 416.246 231.364 402.638 226.568C402.638 226.568 413.32 222.445 418.342 214.756C418.342 214.756 421.446 204.35 431.888 196.608C431.888 196.608 432.294 184.914 437.163 178.341C437.163 178.341 439.646 167.359 440.309 164.792C440.309 164.792 442.931 155.147 442.914 152.482C442.914 152.482 442.046 139.883 450.172 130.076C450.172 130.076 455.611 119.584 464.096 112.273C464.096 112.273 470.535 104.314 475.323 99.44C475.323 99.44 481.629 92.0518 495.369 82.4115C495.369 82.4115 501.588 77.8879 506.143 73.0246C506.143 73.0246 530.379 55.5785 547.894 69.5727C547.894 69.5727 559.987 77.7988 570.092 80.3459C570.092 80.3459 590.843 82.7623 599.687 97.1684C599.687 97.1684 600.444 99.8297 608.809 100.843C608.809 100.843 627.185 98.6244 640.717 116.697C640.717 116.697 647.003 122.832 659.449 124.324C659.449 124.324 679.732 122.248 692.944 137.806C692.944 137.806 726.285 166.889 746.167 148.028C746.167 148.028 756.462 138.277 744.689 120.619C744.689 120.619 737.223 111.605 724.484 102.188C724.484 102.188 714.14 94.9052 718.883 83.5835C718.883 83.5835 721.386 72.6432 736.878 72.3537C736.878 72.3537 756.317 68.5983 764.176 58.7827C764.176 58.7827 772.959 89.6967 738.504 89.1817C738.504 89.1817 729.523 90.5096 732.66 97.6361C732.66 97.6361 737.062 103.733 742.969 105.951C742.969 105.951 753.361 110.497 758.06 125.63C758.06 125.63 768.557 152.121 742.941 162.345C733.1 165.75 721.72 164.748 711.579 162.983ZM760.88 225.407C759.488 224.246 757.453 223.592 755.652 224.015C751.571 224.892 754.04 228.422 754.04 228.422C755.693 231.509 761.08 236.717 761.08 236.717C765.877 240.306 769.665 236.033 769.665 236.033C773.209 232.533 768.588 230.841 768.588 230.841C765.907 229.75 760.88 225.407 760.88 225.407ZM771.146 241.965C771.146 241.965 769.665 243.064 770.453 245.236C770.453 245.236 774.256 255.644 774.08 259.138C774.08 259.138 782.501 260.641 783.659 256.488C783.659 256.488 783.885 254.884 782.515 252.56C782.515 252.56 781.087 250.391 780.717 246.425C780.717 246.425 780.845 236.442 774.378 239.086C773.092 239.805 772.079 240.849 771.146 241.965ZM474.533 220.841C476.017 220.805 476.398 220.262 476.214 218.631C475.218 214.096 471.588 212.139 471.588 212.139C464.767 208.064 463.935 212.145 463.935 212.145C462.69 219.424 468.442 220.34 468.442 220.34C469.592 220.736 474.533 220.841 474.533 220.841ZM453.963 188.332C453.835 184.917 453.543 177.325 457.02 174.614C458.306 173.595 463.367 168.047 463.367 168.047C464.138 166.702 464.731 166.619 464.731 166.619C465.769 166.518 467.125 168.946 467.125 168.946C470.727 175.908 474.332 175.059 474.332 175.059C474.36 173.79 473.506 172.373 473.506 172.373C471.765 168.991 470.041 165.6 468.333 162.201C467.952 161.278 467.615 160.338 467.323 159.384C463.84 153.986 460.561 158.095 460.561 158.095C459.097 160.954 451.291 170.268 451.291 170.268C450.258 171.48 449.596 172.963 449.384 174.541C447.583 187.299 453.963 188.332 453.963 188.332ZM525.88 111.316C526.946 109.398 526.506 107.441 525.435 105.576C523.018 101.873 520.766 105.912 520.766 105.912C512.42 117.543 518.581 134.956 518.581 134.956C519.433 118.929 525.88 111.316 525.88 111.316Z" fill="#CC2729"/>
</g>
<defs>
<clipPath id="clip0_45_54">
<rect width="790" height="301" fill="white"/>
</clipPath>
</defs>
</svg>
